<svg width="90" height="90" viewBox="0 0 90 90" fill="none" xmlns="http://www.w3.org/2000/svg">
<rect width="90" height="90" rx="4" fill="#262535"/>
<path d="M17.5 65.4248C17.6953 60.5412 18.3204 45.7194 19.2581 41.5C20.4301 36.2258 29.8065 35.6398 32.7366 39.742C35.6667 43.8441 34.8283 46.606 36.8387 47.9463C38.5968 49.1183 41.5269 49.1183 43.2849 49.1183C46.0757 49.1183 47.9362 50.5802 48.2334 52.0484C49.514 52.2438 52.3097 52.6344 53.2473 52.6344C54.4194 52.6344 55.0054 54.3925 53.2473 54.3925C50.9032 54.3925 48.3638 54.2004 47.3871 54.1044C46.5253 54.752 45.006 55.1433 42.6989 54.9785C39.7688 54.9785 35.7844 54.8224 32.7366 53.8065C30.9785 53.2205 28.6344 49.1183 28.0484 47.9463C27.4624 46.7742 25.7043 50.2904 28.0484 52.6344C30.3925 54.9785 32.7366 60.7366 32.7366 63.6667C32.7366 66.5968 22.5789 65.8154 17.5 65.4248Z" fill="#E54E2E"/>
<path d="M60.2796 42.0861C58.5215 43.2581 55.5914 45.0162 55.0054 47.3603L63.7957 50.8764C61.2563 54.1972 63.0376 60.7366 60.1075 64.8387C64.7957 66.0108 69.6792 65.2294 73 65.4248C72.6093 62.2993 70.5935 50.9936 69.6559 46.7742C68.4839 41.5001 62.0376 40.914 60.2796 42.0861Z" fill="#F0EFFD"/>
<path d="M50.9029 58.1505C49.7309 58.1505 46.2147 57.5645 42.6988 58.7366C41.1361 60.4946 39.1823 64.0107 48.5589 64.0107C59.1071 64.0107 58.523 62.8424 57.9379 61.6721L57.9352 61.6666C56.7633 59.3226 52.075 58.1505 50.9029 58.1505Z" fill="#F0EFFD"/>
<path d="M54.4196 49.1183C53.8338 50.2903 52.0755 53.2204 51.4895 54.3924C50.5941 56.1505 53.2475 56.7365 53.8336 56.1505C54.4196 55.5645 55.5916 52.0484 56.1776 50.8763C56.7634 49.1183 55.0053 47.9462 54.4196 49.1183Z" fill="#F0EFFD"/>
<path d="M57.935 50.8764C57.3493 52.0484 56.7631 54.3925 56.177 55.5645C55.2817 57.3226 58.7041 58.3804 59.2901 57.7943C59.8762 57.2083 61.0482 53.6922 61.6342 52.5201C62.22 50.7621 58.5208 49.7043 57.935 50.8764Z" fill="#F0EFFD"/>
<circle cx="30.9785" cy="26.0215" r="7.03226" fill="#E54E2E"/>
<circle cx="56.7634" cy="31.8817" r="7.03226" fill="#F0EFFD"/>
</svg>
