<svg width="20" height="15" viewBox="0 0 20 15" fill="none" xmlns="http://www.w3.org/2000/svg">
<path fill-rule="evenodd" clip-rule="evenodd" d="M0.87868 0.87868C0 1.75736 0 3.17157 0 6V9C0 11.8284 0 13.2426 0.87868 14.1213C1.75736 15 3.17157 15 6 15H13.2857C16.1141 15 17.5284 15 18.407 14.1213C19.2857 13.2426 19.2857 11.8284 19.2857 9V6C19.2857 3.17157 19.2857 1.75736 18.407 0.87868C17.5284 0 16.1141 0 13.2857 0H6C3.17157 0 1.75736 0 0.87868 0.87868ZM3.76899 3.45366C3.30946 3.14731 2.68859 3.27149 2.38224 3.73101C2.07588 4.19054 2.20006 4.81141 2.65959 5.11776L8.53346 9.03368C9.20526 9.48155 10.0805 9.48154 10.7523 9.03368L16.6261 5.11776C17.0857 4.81141 17.2098 4.19054 16.9035 3.73101C16.5971 3.27149 15.9763 3.14731 15.5167 3.45366L9.64286 7.36958L3.76899 3.45366Z" fill="white"/>
</svg>
