<svg width="18" height="21" viewBox="0 0 18 21" fill="none" xmlns="http://www.w3.org/2000/svg">
<path fill-rule="evenodd" clip-rule="evenodd" d="M9.40112 20.3762C11.1474 19.4876 18 15.581 18 9C18 4.02944 13.9706 0 9 0C4.02944 0 0 4.02944 0 9C0 15.581 6.85259 19.4876 8.59888 20.3762C8.85275 20.5054 9.14725 20.5054 9.40112 20.3762ZM9 12.8571C11.1302 12.8571 12.8571 11.1302 12.8571 9C12.8571 6.86976 11.1302 5.14286 9 5.14286C6.86976 5.14286 5.14286 6.86976 5.14286 9C5.14286 11.1302 6.86976 12.8571 9 12.8571Z" fill="white"/>
</svg>
