<svg width="80" height="80" viewBox="0 0 80 80" fill="none" xmlns="http://www.w3.org/2000/svg">
<g clip-path="url(#clip0_56_93)">
<path d="M5.99997 59.06C6.00278 58.2686 6.11381 57.4813 6.32997 56.72C6.86311 54.9814 6.85705 53.122 6.3126 51.3869C5.76815 49.6518 4.71084 48.1223 3.27997 47C2.25349 46.1451 1.4276 45.0748 0.860823 43.8651C0.294043 42.6554 0.000244141 41.3359 0.000244141 40C0.000244141 38.6641 0.294043 37.3446 0.860823 36.1349C1.4276 34.9252 2.25349 33.855 3.27997 33C4.70547 31.9097 5.76353 30.4096 6.31226 28.7008C6.86098 26.9921 6.87414 25.1564 6.34997 23.44C5.99714 22.2786 5.88288 21.0579 6.01406 19.8512C6.14524 18.6445 6.51914 17.4768 7.11328 16.4184C7.70743 15.36 8.50952 14.4327 9.47133 13.6923C10.4331 12.9518 11.5348 12.4136 12.71 12.11C13.63 11.91 14.57 11.97 15.49 11.79C17.0372 11.5245 18.4818 10.8395 19.6667 9.80982C20.8516 8.7801 21.7313 7.44504 22.21 5.95C22.7733 4.14242 23.9247 2.57501 25.4812 1.49692C27.0376 0.41884 28.9097 -0.108051 30.8 3.83984e-06C32.3128 0.088833 33.7694 0.605551 35 1.49C36.4402 2.57701 38.1955 3.16505 40 3.16505C41.8044 3.16505 43.5597 2.57701 45 1.49C49.75 -1.67 55.71 0.370004 57.74 5.9C58.1861 7.26136 58.959 8.4927 59.991 9.48634C61.023 10.48 62.2827 11.2057 63.66 11.6C64.598 11.8024 65.5513 11.9262 66.51 11.97C67.7327 12.1624 68.9014 12.6095 69.9404 13.2822C70.9794 13.955 71.8655 14.8384 72.5414 15.8754C73.2173 16.9123 73.6679 18.0796 73.864 19.3018C74.0602 20.5239 73.9975 21.7736 73.68 22.97C73.1079 24.7821 73.104 26.726 73.6689 28.5404C74.2337 30.3548 75.3403 31.9529 76.84 33.12C77.8366 33.9649 78.6372 35.0166 79.1864 36.2021C79.7356 37.3876 80.02 38.6785 80.02 39.985C80.02 41.2915 79.7356 42.5824 79.1864 43.7679C78.6372 44.9534 77.8366 46.0051 76.84 46.85C75.338 48.0153 74.2298 49.6133 73.6647 51.4283C73.0996 53.2434 73.1049 55.1881 73.68 57C74.019 58.2651 74.0724 59.5899 73.8362 60.8782C73.6 62.1665 73.0802 63.3861 72.3144 64.4487C71.5486 65.5112 70.5559 66.3901 69.4085 67.0217C68.261 67.6532 66.9874 68.0215 65.68 68.1C61.75 68.34 59.11 70.37 57.68 74.17C55.68 79.59 49.68 81.63 44.99 78.51C43.5387 77.4266 41.7761 76.8412 39.965 76.8412C38.1539 76.8412 36.3913 77.4266 34.94 78.51C30.19 81.65 24.3 79.64 22.24 74.21C20.79 70.39 18.14 68.35 14.17 68.11C11.8985 67.9606 9.77466 66.9319 8.24926 65.2422C6.72387 63.5525 5.91702 61.3349 5.99997 59.06V59.06Z" fill="#3EB555"/>
<path d="M56.49 24.67C58 26.2974 59.2148 28.1755 60.08 30.22C61.4798 33.268 62.1932 36.5861 62.17 39.94C62.2319 45.1117 60.5557 50.1545 57.41 54.26C55.6291 56.6628 53.3704 58.6713 50.776 60.1594C48.1816 61.6474 45.3075 62.5828 42.3343 62.9068C39.361 63.2308 36.3529 62.9364 33.4989 62.0421C30.6449 61.1477 28.0067 59.6728 25.75 57.71C25.5713 57.5446 25.4073 57.3639 25.26 57.17C18.34 48.42 19.05 34.94 27 26.59C34.95 18.24 48.17 17.49 56.49 24.67Z" fill="#8AD298"/>
<path d="M56.49 24.67C55.37 24.09 54.42 23.25 53.3 22.67C50.8883 21.3517 48.2482 20.5034 45.52 20.17C42.1075 19.7333 38.6399 20.1384 35.42 21.35C32.839 22.3115 30.4638 23.7537 28.42 25.6C24.8404 28.7408 22.3624 32.9467 21.35 37.6C20.552 40.8621 20.4694 44.2582 21.1081 47.5552C21.7468 50.8522 23.0915 53.9719 25.05 56.7C25.1545 56.8281 25.2173 56.9852 25.23 57.15C21.7321 54.049 19.3324 49.8986 18.39 45.32C17.5712 41.9194 17.5336 38.3775 18.2801 34.9602C19.0266 31.543 20.5377 28.3394 22.7 25.59C25.9697 21.1143 30.8763 18.1129 36.35 17.24C39.4388 16.6737 42.6153 16.8074 45.6456 17.6312C48.676 18.455 51.483 19.9479 53.86 22C54.8183 22.8057 55.6988 23.6996 56.49 24.67V24.67Z" fill="#7DBD89"/>
<path d="M53 31.8C53.0156 32.2827 52.9353 32.7638 52.7636 33.2152C52.592 33.6667 52.3324 34.0796 52 34.43C47.9067 39.2833 43.82 44.14 39.74 49C39.4372 49.3669 39.0582 49.6635 38.6293 49.8694C38.2004 50.0752 37.7319 50.1852 37.2562 50.1919C36.7805 50.1985 36.3091 50.1016 35.8746 49.9079C35.4401 49.7142 35.053 49.4283 34.74 49.07C33.06 47.29 31.4167 45.47 29.81 43.61C29.1851 42.9101 28.8627 41.9912 28.9133 41.0543C28.9639 40.1174 29.3834 39.2386 30.08 38.61C30.3922 38.3039 30.7635 38.0645 31.1712 37.9066C31.579 37.7486 32.0146 37.6754 32.4515 37.6913C32.8885 37.7072 33.3177 37.8119 33.7128 37.9991C34.108 38.1863 34.4609 38.452 34.75 38.78C35.39 39.45 36.04 40.11 36.62 40.84C36.98 41.29 37.18 41.36 37.62 40.84C39.71 38.32 41.83 35.84 43.94 33.33C45.06 31.99 46.17 30.64 47.34 29.33C47.7845 28.8192 48.3854 28.4697 49.0492 28.3358C49.7129 28.202 50.4023 28.2913 51.01 28.59C51.6203 28.8705 52.1344 29.3245 52.4883 29.8954C52.8422 30.4662 53.0202 31.1287 53 31.8V31.8Z" fill="#FEFEFE"/>
</g>
<defs>
<clipPath id="clip0_56_93">
<rect width="80" height="80" fill="white"/>
</clipPath>
</defs>
</svg>
