<svg width="90" height="90" viewBox="0 0 90 90" fill="none" xmlns="http://www.w3.org/2000/svg">
<rect width="90" height="90" rx="4" fill="#6B2976"/>
<path d="M22.2139 51.5476C22.214 53.782 16.2554 54.5268 17.0002 50.058C18.1177 43.3549 17.8958 37.3965 21.4693 33.6726C24.606 30.4038 30.6576 29.9486 38.5995 29.9486C41.704 29.9486 44.0868 30.3999 45.9827 32.9278C51.1963 33.8981 59.6869 35.2565 66.8369 32.9278C72.7952 30.9872 73.54 38.1413 69.816 39.6309C66.0921 41.1205 54.1754 43.3443 45.2379 41.1205C43.8581 40.7772 41.1632 41.9392 41.1632 42.7632V57.5314L41.1632 60.6212V76.0704C41.1632 78.1303 35.9891 77.1003 35.9891 76.0704V61.6511C35.9891 59.5913 29.7802 59.5913 29.7802 61.6511V76.0704C29.7802 78.1303 24.606 78.1303 24.606 76.0704V60.6212C24.606 59.7972 25.9379 37.6134 25.9379 36.5835C25.9379 33.4937 22.2139 42.7632 22.2139 51.5476Z" fill="#E54E2E"/>
<path d="M46.9499 60.6213C46.9499 59.7973 46.2694 54.3903 46.9497 49.9898C47.63 45.5893 54.9201 44.0997 59.3889 43.3549C63.8576 42.6102 67.5816 43.3549 67.5816 43.3549C72.7951 45.5893 72.6278 53.235 71.3055 60.6213C70.7966 63.4643 69.0712 64.2091 69.0712 61.6512C69.0712 57.6404 68.3264 49.9898 66.0923 49.9898C64.7125 49.6465 63.507 53.0372 63.507 56.1695L63.507 60.6213V76.0705C63.507 78.1303 58.3329 77.1004 58.3329 76.0705V61.6512C58.3329 59.5913 52.124 59.5913 52.124 61.6512V76.0705C52.124 78.1303 46.9499 78.1303 46.9499 76.0705V60.6213Z" fill="#F5E5F8"/>
<path d="M42.6537 19.1927C42.6537 23.7174 38.9857 27.3854 34.461 27.3854C29.9363 27.3854 26.2683 23.7174 26.2683 19.1927C26.2683 14.668 29.9363 11 34.461 11C38.9857 11 42.6537 14.668 42.6537 19.1927Z" fill="#E54E2E"/>
<circle cx="57.1545" cy="23.9903" r="7.44792" fill="#F5E5F8"/>
</svg>
