<svg width="863" height="465" viewBox="0 0 863 465" fill="none" xmlns="http://www.w3.org/2000/svg">
<path d="M647.279 53.2908L650.665 50.8162C652.449 49.5128 654.951 49.9021 656.255 51.6857L657.858 53.8804C659.162 55.6641 658.773 58.1666 656.989 59.4701L654.811 61.0617C654.164 61.5342 653.893 62.3675 654.136 63.1304C655.546 67.5404 658.347 71.3743 662.121 74.0567C662.774 74.5207 663.65 74.515 664.297 74.0424L665.667 73.0408C667.897 71.4115 671.025 71.8981 672.654 74.1277L673.668 75.515C674.972 77.2986 674.582 79.8012 672.799 81.1046L669.413 83.5792C667.002 85.3409 663.662 85.0618 661.577 82.9244L658.465 79.7333C654.164 75.3243 650.512 70.3265 647.617 64.8896L645.523 60.9546C644.119 58.3189 644.868 55.0525 647.279 53.2908Z" fill="#E5E8FB"/>
<path d="M836.182 93.7079L828.949 96.8225C823.623 99.116 817.446 96.6576 815.153 91.3314V91.3314C812.859 86.0052 815.318 79.8282 820.644 77.5347L827.877 74.4202" stroke="#1A2E35" stroke-width="3" stroke-linecap="round" stroke-linejoin="round"/>
<path d="M846.495 77.8349L827.208 86.1404" stroke="#1A2E35" stroke-width="3" stroke-linecap="round" stroke-linejoin="round"/>
<path d="M845.826 89.5551L853.059 86.4405C858.385 84.147 860.844 77.9701 858.55 72.6439V72.6439C856.257 67.3177 850.08 64.8593 844.754 67.1528L837.521 70.2673" stroke="#1A2E35" stroke-width="3" stroke-linecap="round" stroke-linejoin="round"/>
<path d="M551.231 153.714C509.231 177.214 449.231 220.214 399.231 261.714C397.398 266.714 396.231 278.914 406.231 287.714C418.731 298.714 533.231 395.214 551.231 412.214C569.231 429.214 588.731 454.714 610.231 437.714C631.731 420.714 683.731 378.714 717.731 350.714C751.731 322.714 727.231 275.714 717.731 261.714C708.231 247.714 657.231 187.214 641.231 173.714C625.231 160.214 593.231 130.214 551.231 153.714Z" fill="#F7F8FF"/>
<path d="M415.249 89.3089C380.749 92.8089 285.749 109.809 252.749 114.309C239.5 117 236.249 124.209 236.249 129.809V313.309C236.249 327.309 228.249 363.809 252.749 365.309C277.249 366.809 441.249 373.309 457.749 373.309C474.249 373.309 496.749 379.809 495.749 350.809C494.749 321.809 492.249 199.309 488.749 155.809C485.249 112.309 449.749 85.8089 415.249 89.3089Z" fill="#F7F8FF"/>
<path d="M559.525 15.951C573.197 15.951 565.601 0.189957 560.284 6.10352e-05H516.799C515.28 6.10352e-05 513.001 6.10352e-05 513.001 2.65856V40.827C513.001 44.2451 512.621 57.3477 524.964 57.3477H590.477C605.289 57.3477 604.909 32.0919 590.477 32.0919H558.196C548.321 32.0919 545.852 15.951 559.525 15.951Z" fill="#F7F8FF"/>
<path d="M543.919 268.397C530.247 268.397 537.843 284.158 543.16 284.348H586.645C588.164 284.348 590.443 284.348 590.443 281.689V243.521C590.443 240.103 590.823 227 578.48 227H512.967C498.155 227 498.535 252.256 512.967 252.256H545.249C555.123 252.256 557.592 268.397 543.919 268.397Z" fill="#E3E4F0"/>
<g filter="url(#filter0_d_221_3)">
<circle cx="603.356" cy="294.602" r="56.3981" fill="#D9D9D9"/>
</g>
<path d="M586.076 347.772C584.86 345.341 578.86 328.149 576.011 319.857L636.207 289.475C642.474 301.438 645.892 307.704 652.538 321.946C631.27 359.355 587.595 350.81 586.076 347.772Z" fill="#CCC7C7"/>
<circle cx="603.166" cy="295.172" r="36.4594" fill="white"/>
<path d="M579.619 338.657C581.518 335.049 584.366 330.302 585.885 327.263L592.532 330.112C591.392 332.327 587.405 339.379 585.886 342.265C583.987 345.873 577.72 342.265 579.619 338.657Z" fill="white"/>
<circle cx="603.546" cy="294.792" r="31.5222" fill="#563B04"/>
<path d="M631.65 292.323C631.65 308.464 618.927 319.668 600.697 319.668C592.308 319.668 572.213 312.201 572.213 294.792C572.213 277.383 585.947 263.649 603.356 263.649C620.765 263.649 631.65 275.803 631.65 292.323Z" fill="url(#paint0_linear_221_3)"/>
<path d="M620.066 287.766C614.749 289.475 594.241 296.501 588.164 298.02C579.049 300.757 577.72 293.462 577.53 292.133C577.34 290.804 573.732 273.524 598.988 268.396C624.244 263.269 625.383 286.056 620.066 287.766Z" fill="#684D14"/>
<path d="M597.469 268.586H587.025C582.658 270.295 575.631 278.841 574.302 283.968H594.051C606.584 283.968 604.115 268.586 597.469 268.586Z" fill="#7B663D" fill-opacity="0.56"/>
<circle cx="607.533" cy="320.048" r="0.829249" fill="#4C3300" stroke="#654A1A"/>
<circle cx="611.901" cy="319.098" r="1.01914" fill="#4C3300" stroke="#654A1A"/>
<circle cx="616.078" cy="319.098" r="2.51914" fill="#4C3300" stroke="#654A1A" stroke-width="2"/>
<circle cx="618.737" cy="317.579" r="0.639356" fill="#4C3300" stroke="#654A1A"/>
<path d="M176.835 202.188C170.172 208.339 62.4999 326 56.292 333.993C52.7913 338.5 48.091 343.834 56.292 350.395C63.1915 355.914 147.785 420.621 221.499 462.571H354.009C384.362 413.97 431.009 339.573 433.63 335.455C437.218 329.817 431.067 324.691 429.017 323.666C427.377 322.846 414.323 315.807 408.002 312.39L405.951 314.44L391.6 306.751L391.087 307.264L215.79 217.053V216.54L202.976 210.389L204.514 208.339C201.951 206.972 195.903 203.828 192.212 202.188C187.599 200.138 183.498 196.037 176.835 202.188Z" fill="url(#paint1_linear_221_3)"/>
<path d="M354.009 462.571C384.362 413.97 431.009 339.573 433.63 335.455C437.218 329.817 431.067 324.691 429.017 323.666C427.377 322.846 414.323 315.807 408.002 312.39L405.951 314.44L391.6 306.751L391.087 307.264L215.79 217.053V216.54L202.976 210.389L204.514 208.339C201.951 206.972 195.903 203.828 192.212 202.188C187.599 200.138 183.498 196.037 176.835 202.188C170.172 208.339 62.4999 326 56.292 333.993C52.7913 338.5 48.091 343.834 56.292 350.395C63.1915 355.914 147.785 420.621 221.499 462.571M354.009 462.571H221.499M354.009 462.571C334.705 462.571 286.011 462.571 221.499 462.571" stroke="#B1B1B1"/>
<path d="M371.097 435.405C373.147 432.33 432.605 337.506 435.168 333.405C435.168 333.405 436.705 335.712 436.193 336.48C435.168 338.018 372.635 435.405 372.122 435.918C371.61 436.43 369.047 438.481 371.097 435.405Z" fill="#535252"/>
<path d="M182.938 69.0753C181.913 72.1507 181.216 182.252 181.216 190.275L181.216 190.347C181.216 193.084 181.216 198.872 184.264 200.904C188.079 203.447 429.017 327.767 433.63 330.842C438.243 333.918 440.68 326.488 441.056 324.226C441.501 321.556 451.714 197.29 452.739 194.727C453.764 192.164 451.714 187.039 447.613 185.501C443.513 183.963 196.777 65.9999 192.164 64.4622C187.551 62.9245 183.963 65.9999 182.938 69.0753Z" fill="#121212"/>
<path d="M191.263 72.6569C190.238 72.1443 189.726 72.6569 189.726 73.1695C188.706 118.163 188.11 190.708 188.11 192.215C188.11 193.361 188.352 194.777 189.377 195.29C190.402 195.803 430.795 318.548 431.82 319.061C432.845 319.573 433.095 319.586 433.358 319.061C433.871 318.036 445.158 194.715 445.67 194.202C446.183 193.689 446.183 193.689 445.158 193.177C444.133 192.664 192.288 73.1695 191.263 72.6569Z" fill="url(#paint2_linear_221_3)"/>
<path d="M189.649 224.742C187.599 226.792 132.754 281.124 130.704 283.174C129.85 283.857 128.654 285.532 130.704 286.762C133.267 288.3 335.217 407.215 337.78 408.752C340.343 410.29 341.881 410.803 343.418 408.752C344.95 406.71 392.784 334.96 394.149 332.913L394.162 332.893C395.187 331.355 395.7 329.817 393.137 328.28C390.574 326.742 198.363 226.279 195.8 224.742C193.237 223.204 191.699 222.691 189.649 224.742Z" fill="#D9D9D9" stroke="#6B6B6B"/>
<path d="M127.629 283.686L110.5 274.5L168.121 211.927L190 223.5L127.629 283.686Z" fill="#CACED1"/>
<path d="M372.634 429.767L344.443 409.777L396.725 331.867L424.403 346.219L372.634 429.767Z" fill="#B7B7B7"/>
<path d="M191.187 224.741L186.574 229.354C186.232 229.696 185.754 230.482 186.574 230.892C187.599 231.405 384.936 336.48 386.474 337.506C388.012 338.531 388.524 338.018 389.549 336.993C390.575 335.968 392.112 333.918 393.137 332.38C394.162 330.842 393.65 330.33 392.112 329.305C390.575 328.279 193.75 225.254 192.725 224.741C191.7 224.229 191.7 224.229 191.187 224.741Z" fill="#121212"/>
<path d="M184.011 231.917L176.323 239.606C175.81 239.948 175.092 240.836 176.323 241.656C177.86 242.681 189.137 248.319 190.674 249.345C192.212 250.37 193.75 250.37 194.775 249.345C195.8 248.319 199.388 244.219 200.926 242.681C202.463 241.144 201.951 240.118 200.926 239.606C199.901 239.093 187.086 232.43 186.061 231.917C185.036 231.405 184.524 231.405 184.011 231.917Z" fill="#121212"/>
<path d="M299.85 291.888C298.825 291.375 297.8 291.888 297.288 292.4C295.408 294.963 291.547 300.191 291.137 300.601C290.624 301.114 289.599 302.139 290.624 302.651C291.649 303.164 300.363 308.29 301.388 308.802C302.413 309.315 303.659 308.983 304.463 307.777C305.489 306.239 310.102 300.089 310.614 299.576C311.127 299.063 311.127 298.038 310.102 297.526C309.076 297.013 300.875 292.4 299.85 291.888Z" fill="#0F0F0F"/>
<path d="M314.202 299.576C313.177 299.064 312.664 299.064 311.639 300.089C309.589 302.822 305.386 308.392 304.976 308.802C304.463 309.315 303.951 309.827 304.976 310.34C306.001 310.853 314.715 315.978 315.74 316.491C316.765 317.003 317.79 317.003 318.303 316.491C318.815 315.978 324.155 308.588 324.966 307.777C325.479 307.265 325.991 305.727 324.966 305.214C323.941 304.702 315.227 300.089 314.202 299.576Z" fill="#0F0F0F"/>
<path d="M328.554 307.264C327.529 306.752 327.016 307.264 326.503 307.777C324.453 310.511 320.25 316.08 319.84 316.49C319.328 317.003 318.815 318.028 319.84 318.541C320.865 319.053 330.091 324.691 331.117 325.204C332.142 325.717 333.167 324.691 333.679 324.179C334.192 323.666 339.318 316.49 340.343 315.465C341.368 314.44 340.855 313.928 339.83 313.415C338.805 312.902 329.579 307.777 328.554 307.264Z" fill="#0F0F0F"/>
<path d="M343.516 316.18C342.545 315.692 342.06 316.18 341.574 316.668C339.633 319.273 335.653 324.579 335.265 324.97C334.78 325.458 334.294 326.435 335.265 326.923C336.236 327.412 344.972 332.784 345.942 333.272C346.913 333.76 347.884 332.784 348.369 332.295C348.854 331.807 353.707 324.97 354.678 323.993C355.649 323.017 355.163 322.528 354.193 322.04C353.222 321.552 344.486 316.668 343.516 316.18Z" fill="#0F0F0F"/>
<path d="M358.893 324.381C357.922 323.893 357.437 324.381 356.951 324.87C355.01 327.474 351.03 332.781 350.642 333.172C350.157 333.66 349.671 334.637 350.642 335.125C351.613 335.613 361.374 340.985 362.344 341.473C363.315 341.962 364.286 340.985 364.771 340.497C365.256 340.008 370.11 333.172 371.08 332.195C372.051 331.218 371.565 330.73 370.595 330.241C369.624 329.753 359.863 324.87 358.893 324.381Z" fill="#0F0F0F"/>
<path d="M374.269 332.582C373.299 332.094 372.813 332.582 372.328 333.07C370.387 335.675 366.407 340.982 366.019 341.372C365.534 341.861 365.048 342.837 366.019 343.326C366.99 343.814 376.751 349.186 377.721 349.674C378.692 350.162 379.663 349.186 380.148 348.697C380.633 348.209 385.486 341.372 386.457 340.396C387.428 339.419 386.942 338.931 385.972 338.442C385.001 337.954 375.24 333.07 374.269 332.582Z" fill="#0F0F0F"/>
<path d="M202.63 242.553L195.966 249.216C195.571 249.612 194.705 250.495 195.966 251.267C197.85 252.42 203.897 255.977 205.026 256.52C206.892 257.419 207.589 256.008 208.101 255.495L213.739 249.857C214.765 248.832 214.765 247.807 213.739 247.294C212.714 246.782 206.051 242.681 205.026 242.169C204.001 241.656 203.142 242.04 202.63 242.553Z" fill="#121212"/>
<path d="M228.604 256.008C227.579 257.034 222.453 262.672 221.428 263.697C221.257 264.039 221.12 264.824 221.941 265.235C222.966 265.747 230.654 270.36 231.679 270.873C232.704 271.385 233.217 270.873 234.242 269.848C235.208 268.882 239.88 263.697 240.905 262.672C241.931 261.647 240.905 260.621 239.88 260.109C238.855 259.596 232.192 256.008 231.167 255.496C230.142 254.983 229.629 254.983 228.604 256.008Z" fill="#0F0F0F"/>
<path d="M241.931 263.184C241.418 263.696 236.805 269.335 235.78 270.36C234.755 271.385 234.447 272.512 235.267 272.923C236.292 273.435 243.981 277.536 245.006 278.048C246.031 278.561 247.056 278.048 247.569 277.536C248.081 277.023 253.719 270.36 254.232 269.847C254.745 269.335 254.745 268.309 253.719 267.797C252.694 267.284 245.006 263.184 243.981 262.671C242.956 262.159 242.443 262.671 241.931 263.184Z" fill="#0F0F0F"/>
<path d="M255.257 270.36C253.72 271.898 250.132 276.511 248.594 278.049C248.252 278.561 247.774 279.689 248.594 280.099C249.619 280.612 258.333 285.225 258.845 285.737C259.358 286.25 260.383 286.25 261.408 285.225C262.433 284.199 267.559 277.536 268.071 277.024C268.584 276.511 268.584 275.486 267.559 274.973C266.534 274.461 260.383 270.873 259.358 270.36C258.333 269.848 256.795 268.823 255.257 270.36Z" fill="#0F0F0F"/>
<path d="M269.609 277.024C269.096 277.536 263.458 284.712 262.433 285.737C262.091 286.079 261.51 286.865 261.921 287.275C262.433 287.787 271.659 292.401 272.684 292.913C273.71 293.426 274.222 293.426 274.735 292.913C275.247 292.401 281.398 284.712 281.911 284.199C282.423 283.687 282.936 283.174 281.911 282.662C280.885 282.149 272.684 277.536 271.659 277.024C270.634 276.511 270.122 276.511 269.609 277.024Z" fill="#0F0F0F"/>
<path d="M285.499 284.199C284.473 283.686 283.961 284.199 283.448 284.711C281.398 287.274 277.195 292.502 276.785 292.912C276.272 293.425 275.247 294.45 276.272 294.963C277.297 295.475 286.524 300.601 287.549 301.113C288.574 301.626 288.789 301.411 289.599 300.601L289.599 300.601C290.624 299.576 295.75 292.4 296.262 291.887C296.775 291.375 296.775 290.35 295.75 289.837C294.725 289.324 286.524 284.711 285.499 284.199Z" fill="#0F0F0F"/>
<path d="M215.79 248.832C215.277 249.345 209.126 255.495 208.614 256.52C208.272 257.033 207.794 258.161 208.614 258.571C209.639 259.083 216.302 262.671 218.352 263.696C219.993 264.516 220.403 263.696 220.915 263.184C221.428 262.671 226.553 256.52 227.579 255.495C228.604 254.47 228.091 253.958 227.066 253.445C226.041 252.932 219.378 249.344 218.352 248.832C217.327 248.319 216.302 248.319 215.79 248.832L215.79 248.832Z" fill="#0F0F0F"/>
<path d="M269.076 292.13C268.051 291.617 267.026 292.13 266.513 292.642C264.634 295.205 260.773 300.433 260.363 300.843C259.85 301.356 258.825 302.381 259.85 302.893C260.875 303.406 269.589 308.532 270.614 309.044C271.639 309.557 272.885 309.225 273.689 308.019C274.714 306.481 279.327 300.331 279.84 299.818C280.353 299.305 280.353 298.28 279.327 297.768C278.302 297.255 270.101 292.642 269.076 292.13Z" fill="#121212"/>
<path d="M283.428 299.819C282.403 299.306 281.89 299.306 280.865 300.331C278.815 303.065 274.612 308.635 274.202 309.045C273.689 309.557 273.177 310.07 274.202 310.582C275.227 311.095 283.94 316.221 284.966 316.733C285.991 317.246 287.016 317.246 287.528 316.733C288.041 316.221 293.381 308.83 294.192 308.02C294.704 307.507 295.217 305.969 294.192 305.457C293.167 304.944 284.453 300.331 283.428 299.819Z" fill="#121212"/>
<path d="M297.78 307.507C296.755 306.994 296.242 307.507 295.73 308.019C293.679 310.753 289.476 316.323 289.066 316.733C288.554 317.245 288.041 318.271 289.066 318.783C290.091 319.296 299.318 324.934 300.343 325.446C301.368 325.959 302.393 324.934 302.905 324.421C303.418 323.909 308.544 316.733 309.569 315.708C310.594 314.683 310.081 314.17 309.056 313.657C308.031 313.145 298.805 308.019 297.78 307.507Z" fill="#121212"/>
<path d="M312.742 316.422C311.771 315.934 311.286 316.422 310.8 316.911C308.859 319.515 304.879 324.822 304.491 325.213C304.006 325.701 303.52 326.678 304.491 327.166C305.462 327.654 314.198 333.026 315.168 333.514C316.139 334.003 317.11 333.026 317.595 332.538C318.08 332.049 322.933 325.213 323.904 324.236C324.875 323.259 324.389 322.771 323.419 322.282C322.448 321.794 313.712 316.911 312.742 316.422Z" fill="#121212"/>
<path d="M328.118 324.623C327.148 324.135 326.662 324.623 326.177 325.112C324.236 327.716 320.256 333.023 319.868 333.413C319.382 333.902 318.897 334.878 319.868 335.367C320.838 335.855 330.599 341.227 331.57 341.715C332.541 342.204 333.511 341.227 333.997 340.739C334.482 340.25 339.335 333.413 340.306 332.437C341.277 331.46 340.791 330.972 339.821 330.483C338.85 329.995 329.089 325.112 328.118 324.623Z" fill="#121212"/>
<path d="M343.496 332.825C342.525 332.336 342.04 332.825 341.554 333.313C339.613 335.917 335.633 341.224 335.245 341.615C334.76 342.103 334.274 343.08 335.245 343.568C336.216 344.056 345.977 349.428 346.947 349.916C347.918 350.405 348.889 349.428 349.374 348.94C349.859 348.451 354.713 341.615 355.683 340.638C356.654 339.661 356.169 339.173 355.198 338.685C354.227 338.196 344.466 333.313 343.496 332.825Z" fill="#121212"/>
<path d="M171.856 242.795L165.192 249.458C164.797 249.854 163.931 250.737 165.192 251.509C167.076 252.662 173.123 256.219 174.252 256.763C176.118 257.661 176.815 256.25 177.327 255.737L182.965 250.099C183.99 249.074 183.99 248.049 182.965 247.536C181.94 247.024 175.277 242.923 174.252 242.411C173.227 241.898 172.368 242.283 171.856 242.795Z" fill="#121212"/>
<path d="M197.83 256.25C196.805 257.275 191.679 262.914 190.654 263.939C190.483 264.281 190.346 265.066 191.167 265.476C192.192 265.989 199.88 270.602 200.905 271.115C201.93 271.627 202.443 271.115 203.468 270.09C204.434 269.124 209.106 263.939 210.131 262.914C211.157 261.888 210.131 260.863 209.106 260.351C208.081 259.838 201.418 256.25 200.393 255.738C199.368 255.225 198.855 255.225 197.83 256.25Z" fill="#121212"/>
<path d="M211.157 263.426C210.644 263.939 206.031 269.577 205.006 270.602C203.981 271.627 203.673 272.755 204.493 273.165C205.518 273.677 213.207 277.778 214.232 278.29C215.257 278.803 216.282 278.29 216.795 277.778C217.307 277.265 222.946 270.602 223.458 270.089C223.971 269.577 223.971 268.552 222.946 268.039C221.92 267.526 214.232 263.426 213.207 262.913C212.182 262.401 211.669 262.913 211.157 263.426Z" fill="#121212"/>
<path d="M224.483 270.602C222.945 272.14 219.357 276.753 217.82 278.291C217.478 278.803 217 279.931 217.82 280.341C218.845 280.853 227.558 285.467 228.071 285.979C228.584 286.492 229.609 286.492 230.634 285.467C231.659 284.441 236.785 277.778 237.297 277.266C237.81 276.753 237.81 275.728 236.785 275.215C235.76 274.703 229.609 271.115 228.584 270.602C227.558 270.09 226.021 269.064 224.483 270.602Z" fill="#121212"/>
<path d="M238.835 277.266C238.322 277.778 232.684 284.954 231.659 285.979C231.317 286.321 230.736 287.107 231.146 287.517C231.659 288.029 240.885 292.642 241.91 293.155C242.935 293.668 243.448 293.668 243.96 293.155C244.473 292.642 250.624 284.954 251.136 284.441C251.649 283.929 252.162 283.416 251.136 282.904C250.111 282.391 241.91 277.778 240.885 277.266C239.86 276.753 239.347 276.753 238.835 277.266Z" fill="#121212"/>
<path d="M254.724 284.442C253.699 283.929 253.186 284.442 252.674 284.954C250.624 287.517 246.421 292.745 246.011 293.155C245.498 293.668 244.473 294.693 245.498 295.205C246.523 295.718 255.749 300.844 256.774 301.356C257.799 301.869 258.014 301.654 258.824 300.844L258.825 300.844C259.85 299.818 264.975 292.643 265.488 292.13C266.001 291.617 266.001 290.592 264.975 290.08C263.95 289.567 255.749 284.954 254.724 284.442Z" fill="#121212"/>
<path d="M185.016 249.074C184.503 249.587 178.352 255.737 177.84 256.763C177.498 257.275 177.02 258.403 177.84 258.813C178.865 259.325 185.528 262.913 187.579 263.938C189.219 264.759 189.629 263.938 190.141 263.426C190.654 262.913 195.78 256.763 196.805 255.737C197.83 254.712 197.317 254.2 196.292 253.687C195.267 253.175 188.604 249.587 187.579 249.074C186.553 248.562 185.528 248.562 185.016 249.074L185.016 249.074Z" fill="#121212"/>
<path d="M357.424 341.991L349.736 349.679C349.223 350.021 348.505 350.909 349.736 351.729C351.273 352.754 366.65 361.468 368.188 362.493C369.726 363.518 371.263 363.518 372.288 362.493C373.314 361.468 376.222 356.471 377.414 354.805C378.679 353.036 378.439 352.242 377.414 351.729C376.389 351.217 360.499 342.503 359.474 341.991C358.449 341.478 357.937 341.478 357.424 341.991Z" fill="#121212"/>
<path d="M282.403 316.733C281.378 316.22 280.353 316.733 279.84 317.245C277.961 319.808 274.099 325.036 273.689 325.446C273.177 325.959 272.152 326.984 273.177 327.497C274.202 328.009 282.915 333.135 283.941 333.647C284.966 334.16 286.212 333.828 287.016 332.622C288.041 331.085 292.654 324.934 293.167 324.421C293.679 323.909 293.679 322.884 292.654 322.371C291.629 321.858 283.428 317.245 282.403 316.733Z" fill="#0F0F0F"/>
<path d="M296.755 324.421C295.73 323.909 295.217 323.909 294.192 324.934C292.142 327.668 287.939 333.237 287.529 333.647C287.016 334.16 286.503 334.673 287.529 335.185C288.554 335.698 297.267 340.823 298.292 341.336C299.318 341.849 300.343 341.849 300.855 341.336C301.368 340.823 306.708 333.433 307.519 332.622C308.031 332.11 308.544 330.572 307.519 330.06C306.494 329.547 297.78 324.934 296.755 324.421Z" fill="#0F0F0F"/>
<path d="M311.106 332.11C310.081 331.597 309.569 332.11 309.056 332.622C307.006 335.356 302.803 340.926 302.393 341.336C301.88 341.848 301.368 342.874 302.393 343.386C303.418 343.899 312.644 349.537 313.669 350.049C314.694 350.562 315.719 349.537 316.232 349.024C316.744 348.512 321.87 341.336 322.895 340.311C323.92 339.286 323.408 338.773 322.383 338.26C321.358 337.748 312.131 332.622 311.106 332.11Z" fill="#0F0F0F"/>
<path d="M326.068 341.025C325.098 340.537 324.612 341.025 324.127 341.514C322.186 344.118 318.206 349.425 317.818 349.815C317.332 350.304 316.847 351.28 317.818 351.769C318.788 352.257 327.524 357.629 328.495 358.117C329.466 358.605 330.436 357.629 330.922 357.14C331.407 356.652 336.26 349.815 337.231 348.839C338.201 347.862 337.716 347.374 336.745 346.885C335.775 346.397 327.039 341.514 326.068 341.025Z" fill="#0F0F0F"/>
<path d="M341.445 349.227C340.475 348.738 339.989 349.227 339.504 349.715C337.563 352.319 333.583 357.626 333.195 358.017C332.709 358.505 332.224 359.482 333.195 359.97C334.165 360.458 343.926 365.83 344.897 366.319C345.868 366.807 346.838 365.83 347.324 365.342C347.809 364.853 352.662 358.017 353.633 357.04C354.604 356.063 354.118 355.575 353.148 355.087C352.177 354.598 342.416 349.715 341.445 349.227Z" fill="#0F0F0F"/>
<path d="M356.842 359.235C355.872 358.747 355.386 359.235 354.901 359.724C352.96 362.328 348.98 367.635 348.592 368.026C348.106 368.514 347.621 369.491 348.592 369.979C349.562 370.467 359.323 375.839 360.294 376.327C361.265 376.816 362.235 375.839 362.721 375.351C363.206 374.862 368.059 368.026 369.03 367.049C370.001 366.072 369.515 365.584 368.545 365.095C367.574 364.607 357.813 359.724 356.842 359.235Z" fill="#0F0F0F"/>
<path d="M185.182 267.398L178.519 274.061C178.124 274.457 177.258 275.34 178.519 276.112C180.403 277.265 186.45 280.822 187.578 281.366C189.445 282.264 190.141 280.853 190.654 280.34L196.292 274.702C197.317 273.677 197.317 272.652 196.292 272.139C195.267 271.627 188.603 267.526 187.578 267.014C186.553 266.501 185.695 266.886 185.182 267.398Z" fill="#121212"/>
<path d="M211.157 280.854C210.131 281.879 205.006 287.517 203.981 288.542C203.81 288.884 203.673 289.67 204.493 290.08C205.518 290.592 213.207 295.205 214.232 295.718C215.257 296.231 215.77 295.718 216.795 294.693C217.761 293.727 222.433 288.542 223.458 287.517C224.483 286.492 223.458 285.467 222.433 284.954C221.408 284.442 214.745 280.854 213.719 280.341C212.694 279.829 212.182 279.829 211.157 280.854Z" fill="#0F0F0F"/>
<path d="M224.483 288.029C223.97 288.542 219.357 294.18 218.332 295.205C217.307 296.23 217 297.358 217.82 297.768C218.845 298.28 226.533 302.381 227.558 302.893C228.584 303.406 229.609 302.893 230.121 302.381C230.634 301.868 236.272 295.205 236.785 294.692C237.297 294.18 237.297 293.155 236.272 292.642C235.247 292.13 227.558 288.029 226.533 287.517C225.508 287.004 224.996 287.517 224.483 288.029Z" fill="#0F0F0F"/>
<path d="M237.81 295.205C236.272 296.743 232.684 301.356 231.146 302.894C230.805 303.406 230.326 304.534 231.146 304.944C232.172 305.457 240.885 310.07 241.398 310.582C241.91 311.095 242.935 311.095 243.961 310.07C244.986 309.045 250.111 302.381 250.624 301.869C251.136 301.356 251.136 300.331 250.111 299.819C249.086 299.306 242.935 295.718 241.91 295.205C240.885 294.693 239.347 293.668 237.81 295.205Z" fill="#0F0F0F"/>
<path d="M252.161 301.869C251.649 302.381 246.011 309.557 244.986 310.582C244.644 310.924 244.063 311.71 244.473 312.12C244.986 312.633 254.212 317.246 255.237 317.758C256.262 318.271 256.775 318.271 257.287 317.758C257.8 317.246 263.95 309.557 264.463 309.045C264.976 308.532 265.488 308.02 264.463 307.507C263.438 306.994 255.237 302.381 254.212 301.869C253.187 301.356 252.674 301.356 252.161 301.869Z" fill="#0F0F0F"/>
<path d="M268.051 309.044C267.026 308.532 266.513 309.044 266.001 309.557C263.951 312.12 259.747 317.348 259.337 317.758C258.825 318.27 257.8 319.296 258.825 319.808C259.85 320.321 269.076 325.446 270.101 325.959C271.126 326.471 271.341 326.257 272.151 325.446L272.152 325.446C273.177 324.421 278.302 317.245 278.815 316.733C279.327 316.22 279.327 315.195 278.302 314.682C277.277 314.17 269.076 309.557 268.051 309.044Z" fill="#0F0F0F"/>
<path d="M198.342 273.677C197.83 274.19 191.679 280.341 191.166 281.366C190.825 281.878 190.346 283.006 191.166 283.416C192.192 283.929 198.855 287.517 200.905 288.542C202.545 289.362 202.955 288.542 203.468 288.029C203.981 287.517 209.106 281.366 210.131 280.341C211.156 279.316 210.644 278.803 209.619 278.29C208.594 277.778 201.93 274.19 200.905 273.677C199.88 273.165 198.855 273.165 198.342 273.677L198.342 273.677Z" fill="#0F0F0F"/>
<path d="M162.65 253.829L154.961 261.518C154.449 261.86 153.731 262.748 154.961 263.568C156.499 264.593 170.851 272.282 172.388 273.307C173.926 274.332 175.464 274.332 176.489 273.307C177.514 272.282 181.448 268.309 182.64 266.644C183.905 264.875 183.665 264.081 182.64 263.568C181.615 263.056 165.725 254.342 164.7 253.829C163.675 253.317 163.162 253.317 162.65 253.829Z" fill="#121212"/>
<path d="M271.126 326.984C270.101 326.472 269.076 326.984 268.563 327.497C266.684 330.06 262.823 335.288 262.413 335.698C261.9 336.21 260.875 337.235 261.9 337.748C262.925 338.261 271.639 343.386 272.664 343.899C273.689 344.411 274.935 344.08 275.739 342.874C276.765 341.336 281.378 335.185 281.89 334.673C282.403 334.16 282.403 333.135 281.378 332.622C280.352 332.11 272.151 327.497 271.126 326.984Z" fill="#0F0F0F"/>
<path d="M285.065 334.767C284.04 334.255 283.527 334.255 282.502 335.28C280.452 338.013 276.249 343.583 275.839 343.993C275.326 344.506 274.814 345.018 275.839 345.531C276.864 346.043 285.578 351.169 286.603 351.682C287.628 352.194 288.653 352.194 289.166 351.682C289.678 351.169 294.958 343.936 295.75 343.144C296.262 342.631 296.262 341.094 295.237 340.581C294.212 340.069 286.09 335.28 285.065 334.767Z" fill="#0F0F0F"/>
<path d="M299.338 343.144C298.312 342.631 297.8 343.656 297.287 344.169C295.237 346.903 291.626 351.66 291.216 352.07C290.703 352.582 290.191 353.607 291.216 354.12C292.241 354.633 301.467 360.271 302.492 360.783C303.517 361.296 304.543 360.271 305.055 359.758C305.568 359.246 310.693 353.095 311.718 352.07C312.744 351.045 312.231 350.532 311.206 350.02C310.181 349.507 300.363 343.657 299.338 343.144Z" fill="#0F0F0F"/>
<path d="M315.837 353.085C314.866 352.597 314.381 353.085 313.896 353.573C311.954 356.178 307.975 360.459 307.587 360.85C307.101 361.338 306.616 362.315 307.587 362.803C308.557 363.291 317.293 368.663 318.264 369.152C319.234 369.64 320.205 368.663 320.69 368.175C321.176 367.687 326.029 361.875 327 360.898C327.97 359.922 327.485 359.433 326.514 358.945C325.544 358.457 316.808 353.573 315.837 353.085Z" fill="#0F0F0F"/>
<path d="M331.214 361.286C330.244 360.797 329.758 361.286 329.273 361.774C326.903 364.159 323.352 368.66 322.964 369.051C322.478 369.539 321.993 370.516 322.964 371.004C323.934 371.492 333.695 376.864 334.666 377.352C335.637 377.841 336.607 376.864 337.093 376.376C337.578 375.887 341.406 371.101 342.377 370.124C343.347 369.148 342.862 368.659 341.891 368.171C340.921 367.683 332.185 361.774 331.214 361.286Z" fill="#0F0F0F"/>
<path d="M347.616 371.537C346.646 371.049 346.16 371.537 345.675 372.025C343.734 374.63 340.779 377.886 340.391 378.277C339.905 378.765 339.42 379.742 340.391 380.23C341.361 380.718 352.148 387.115 353.118 387.604C354.089 388.092 355.059 387.115 355.545 386.627C356.03 386.139 358.833 381.352 359.804 380.375C360.774 379.399 360.289 378.91 359.318 378.422C358.348 377.934 348.587 372.025 347.616 371.537Z" fill="#0F0F0F"/>
<path d="M173.906 277.649L167.242 284.313C166.847 284.708 165.982 285.591 167.242 286.363C169.126 287.516 175.174 291.074 176.302 291.617C178.168 292.515 178.865 291.104 179.377 290.592L185.016 284.953C186.041 283.928 186.041 282.903 185.016 282.391C183.99 281.878 177.327 277.778 176.302 277.265C175.277 276.752 174.418 277.137 173.906 277.649Z" fill="#121212"/>
<path d="M199.88 291.105C198.855 292.13 193.729 297.768 192.704 298.793C192.533 299.135 192.397 299.921 193.217 300.331C194.242 300.844 201.93 305.457 202.956 305.969C203.981 306.482 204.493 305.969 205.518 304.944C206.484 303.978 211.157 298.793 212.182 297.768C213.207 296.743 212.182 295.718 211.157 295.205C210.132 294.693 203.468 291.105 202.443 290.592C201.418 290.08 200.905 290.08 199.88 291.105Z" fill="#0F0F0F"/>
<path d="M213.207 298.281C212.694 298.793 208.081 304.431 207.056 305.456C206.031 306.481 205.723 307.609 206.543 308.019C207.568 308.532 215.257 312.632 216.282 313.145C217.307 313.657 218.332 313.145 218.845 312.632C219.357 312.12 224.996 305.456 225.508 304.944C226.021 304.431 226.021 303.406 224.996 302.894C223.97 302.381 216.282 298.281 215.257 297.768C214.232 297.255 213.719 297.768 213.207 298.281Z" fill="#0F0F0F"/>
<path d="M226.533 305.457C224.996 306.994 221.408 311.607 219.87 313.145C219.528 313.658 219.05 314.785 219.87 315.195C220.895 315.708 229.609 320.321 230.121 320.834C230.634 321.346 231.659 321.346 232.684 320.321C233.709 319.296 238.835 312.633 239.348 312.12C239.86 311.607 239.86 310.582 238.835 310.07C237.81 309.557 231.659 305.969 230.634 305.457C229.609 304.944 228.071 303.919 226.533 305.457Z" fill="#0F0F0F"/>
<path d="M240.885 312.12C240.373 312.633 234.734 319.808 233.709 320.834C233.368 321.175 232.787 321.961 233.197 322.371C233.709 322.884 242.935 327.497 243.961 328.01C244.986 328.522 245.498 328.522 246.011 328.01C246.523 327.497 252.674 319.808 253.187 319.296C253.699 318.783 254.212 318.271 253.187 317.758C252.162 317.246 243.961 312.633 242.935 312.12C241.91 311.607 241.398 311.607 240.885 312.12Z" fill="#0F0F0F"/>
<path d="M256.775 319.296C255.75 318.783 255.237 319.296 254.724 319.808C252.674 322.371 248.471 327.599 248.061 328.009C247.548 328.522 246.523 329.547 247.548 330.059C248.574 330.572 257.8 335.698 258.825 336.21C259.85 336.723 260.065 336.508 260.875 335.698L260.875 335.698C261.9 334.672 267.026 327.497 267.539 326.984C268.051 326.471 268.051 325.446 267.026 324.934C266.001 324.421 257.8 319.808 256.775 319.296Z" fill="#0F0F0F"/>
<path d="M187.066 283.929C186.553 284.441 180.403 290.592 179.89 291.617C179.548 292.13 179.07 293.257 179.89 293.667C180.915 294.18 187.579 297.768 189.629 298.793C191.269 299.613 191.679 298.793 192.192 298.28C192.704 297.768 197.83 291.617 198.855 290.592C199.88 289.567 199.368 289.054 198.342 288.542C197.317 288.029 190.654 284.441 189.629 283.929C188.604 283.416 187.579 283.416 187.066 283.929L187.066 283.929Z" fill="#0F0F0F"/>
<path d="M151.373 264.08L143.685 271.769C143.172 272.111 142.455 272.999 143.685 273.819C145.223 274.844 159.574 282.533 161.112 283.558C162.65 284.583 164.187 284.583 165.213 283.558C166.238 282.533 170.172 278.56 171.363 276.895C172.629 275.126 172.388 274.332 171.363 273.819C170.338 273.307 154.449 264.593 153.424 264.08C152.398 263.568 151.886 263.568 151.373 264.08Z" fill="#121212"/>
<path d="M258.825 339.286C257.8 338.773 256.775 339.286 256.262 339.798C254.383 342.361 250.521 347.589 250.111 347.999C249.599 348.512 248.574 349.537 249.599 350.05C250.624 350.562 259.338 355.688 260.363 356.2C261.388 356.713 262.634 356.381 263.438 355.175C264.463 353.638 269.076 347.487 269.589 346.974C270.101 346.462 270.101 345.436 269.076 344.924C268.051 344.411 259.85 339.798 258.825 339.286Z" fill="#0F0F0F"/>
<path d="M273.177 346.974C272.152 346.462 271.639 346.462 270.614 347.487C268.564 350.221 264.361 355.79 263.951 356.2C263.438 356.713 262.925 357.226 263.951 357.738C264.976 358.251 273.689 363.376 274.714 363.889C275.739 364.402 276.765 364.402 277.277 363.889C277.79 363.376 283.13 355.986 283.941 355.175C284.453 354.663 284.966 353.125 283.941 352.613C282.915 352.1 274.202 347.487 273.177 346.974Z" fill="#0F0F0F"/>
<path d="M287.528 354.663C286.503 354.15 285.991 354.663 285.478 355.175C283.428 357.909 279.225 363.479 278.815 363.889C278.302 364.401 277.79 365.426 278.815 365.939C279.84 366.451 289.066 372.09 290.091 372.602C291.116 373.115 292.141 372.09 292.654 371.577C293.167 371.064 298.292 363.889 299.317 362.863C300.342 361.838 299.83 361.326 298.805 360.813C297.78 360.301 288.553 355.175 287.528 354.663Z" fill="#0F0F0F"/>
<path d="M302.51 365.386C301.54 364.898 301.054 365.386 300.569 365.875C298.628 368.479 294.648 373.786 294.26 374.176C293.775 374.665 293.289 375.641 294.26 376.13C295.231 376.618 303.966 381.99 304.937 382.478C305.908 382.967 306.878 381.99 307.364 381.501C307.849 381.013 312.702 374.176 313.673 373.2C314.644 372.223 314.158 371.735 313.188 371.246C312.217 370.758 303.481 365.875 302.51 365.386Z" fill="#0F0F0F"/>
<path d="M317.887 374.612C316.917 374.124 316.431 374.612 315.946 375.101C314.005 377.705 310.025 383.012 309.637 383.402C309.151 383.891 308.666 384.867 309.637 385.356C310.607 385.844 320.368 391.216 321.339 391.704C322.31 392.193 323.28 391.216 323.766 390.728C324.251 390.239 329.104 383.402 330.075 382.426C331.046 381.449 330.56 380.961 329.59 380.472C328.619 379.984 318.858 375.101 317.887 374.612Z" fill="#0F0F0F"/>
<path d="M336.34 382.814C335.369 382.325 334.884 382.814 334.398 383.302C332.457 385.906 327.452 392.238 327.064 392.629C326.579 393.117 326.093 394.094 327.064 394.582C328.035 395.07 340.871 403.518 341.842 404.006C342.812 404.494 343.783 403.518 344.268 403.029C344.754 402.541 350.632 393.654 351.603 392.677C352.573 391.701 352.088 391.212 351.117 390.724C350.147 390.236 337.31 383.302 336.34 382.814Z" fill="#0F0F0F"/>
<path d="M161.604 288.926L154.941 295.589C154.546 295.984 153.68 296.867 154.941 297.639C156.825 298.793 162.872 302.35 164 302.893C165.867 303.791 166.563 302.381 167.076 301.868L172.714 296.23C173.739 295.205 173.739 294.18 172.714 293.667C171.689 293.154 165.026 289.054 164 288.541C162.975 288.029 162.117 288.413 161.604 288.926Z" fill="#0F0F0F"/>
<path d="M187.578 303.406C186.553 304.431 181.428 310.069 180.403 311.095C180.232 311.436 180.095 312.222 180.915 312.632C181.94 313.145 189.629 317.758 190.654 318.27C191.679 318.783 192.192 318.27 193.217 317.245C194.182 316.279 198.855 311.095 199.88 310.069C200.905 309.044 199.88 308.019 198.855 307.507C197.83 306.994 191.166 303.406 190.141 302.894C189.116 302.381 188.604 302.381 187.578 303.406Z" fill="#0F0F0F"/>
<path d="M200.905 310.582C200.392 311.095 195.779 316.733 194.754 317.758C193.729 318.783 193.421 319.911 194.242 320.321C195.267 320.833 202.955 324.934 203.98 325.446C205.005 325.959 206.031 325.446 206.543 324.934C207.056 324.421 212.694 317.758 213.206 317.245C213.719 316.733 213.719 315.708 212.694 315.195C211.669 314.682 203.98 310.582 202.955 310.069C201.93 309.557 201.417 310.069 200.905 310.582Z" fill="#0F0F0F"/>
<path d="M214.232 317.758C212.694 319.296 209.106 323.909 207.569 325.447C207.227 325.959 206.748 327.087 207.569 327.497C208.594 328.009 217.307 332.623 217.82 333.135C218.332 333.648 219.358 333.648 220.383 332.623C221.408 331.597 226.533 324.934 227.046 324.422C227.559 323.909 227.559 322.884 226.533 322.371C225.508 321.859 219.358 318.271 218.332 317.758C217.307 317.246 215.77 316.22 214.232 317.758Z" fill="#0F0F0F"/>
<path d="M228.584 324.422C228.071 324.934 222.433 332.11 221.408 333.135C221.066 333.477 220.485 334.263 220.895 334.673C221.408 335.185 230.634 339.798 231.659 340.311C232.684 340.824 233.197 340.824 233.709 340.311C234.222 339.798 240.373 332.11 240.885 331.597C241.398 331.085 241.91 330.572 240.885 330.06C239.86 329.547 231.659 324.934 230.634 324.422C229.609 323.909 229.096 323.909 228.584 324.422Z" fill="#0F0F0F"/>
<path d="M244.473 331.597C243.448 331.085 242.935 331.597 242.423 332.11C240.373 334.672 236.17 339.901 235.76 340.311C235.247 340.823 234.222 341.848 235.247 342.361C236.272 342.873 245.498 347.999 246.523 348.512C247.548 349.024 247.763 348.809 248.573 347.999L248.574 347.999C249.599 346.974 254.724 339.798 255.237 339.285C255.75 338.773 255.75 337.748 254.724 337.235C253.699 336.723 245.498 332.11 244.473 331.597Z" fill="#0F0F0F"/>
<path d="M174.764 296.23C174.252 296.743 168.101 302.893 167.589 303.919C167.247 304.431 166.768 305.559 167.589 305.969C168.614 306.481 175.277 310.069 177.327 311.094C178.967 311.915 179.377 311.094 179.89 310.582C180.403 310.069 185.528 303.919 186.553 302.893C187.579 301.868 187.066 301.356 186.041 300.843C185.016 300.331 178.352 296.743 177.327 296.23C176.302 295.718 175.277 295.718 174.764 296.23L174.764 296.23Z" fill="#0F0F0F"/>
<path d="M140.097 275.357L131.383 284.071C130.871 284.412 130.153 285.301 131.383 286.121C132.921 287.146 147.273 294.835 148.811 295.86C150.348 296.885 151.886 296.885 152.911 295.86C153.936 294.835 158.895 289.837 160.087 288.171C161.352 286.403 161.112 285.608 160.087 285.096C159.062 284.583 143.172 275.87 142.147 275.357C141.122 274.845 140.609 274.845 140.097 275.357Z" fill="#121212"/>
<path d="M223.478 413.365C221.428 406.189 220.915 402.088 220.915 400.038C220.915 397.988 218.865 394.4 218.865 391.325C218.865 388.249 223.99 375.948 227.578 371.335C231.166 366.721 230.654 364.159 231.166 362.108C231.679 360.058 237.317 354.42 245.518 356.983C250.199 358.445 251.707 358.739 252.425 358.436C252.569 358.276 252.704 358.127 252.829 357.989C255.044 354.516 256.77 351.573 257.307 350.32C260.383 346.048 267.251 336.89 270.121 334.43C273.709 331.355 282.935 320.078 284.473 318.028C286.011 315.978 289.599 314.953 291.136 314.953C292.674 314.953 302.925 317.515 303.951 318.541C304.976 319.566 302.925 321.103 301.9 322.129C301.447 322.582 299.286 325.346 296.885 328.507C301.581 323.331 305.956 318.67 307.026 318.028C309.589 316.49 319.328 317.515 320.865 318.028C322.403 318.541 323.428 319.053 324.966 319.053C326.503 319.053 329.579 324.691 329.066 326.229C328.554 327.767 325.478 330.33 319.84 332.38C314.202 334.43 308.051 347.244 307.026 350.32C306.001 353.395 307.539 357.495 312.664 352.37C317.79 347.244 323.428 340.581 324.966 339.043C326.503 337.505 330.091 336.993 332.142 336.48C334.192 335.968 338.292 332.38 339.318 331.867C340.343 331.355 344.443 328.792 347.006 331.355C349.569 333.918 350.594 340.068 349.056 341.606C347.519 343.144 340.343 349.294 337.267 352.37C334.192 355.445 323.941 366.209 322.403 368.772C320.865 371.335 321.89 372.872 325.478 368.772C329.066 364.671 333.679 359.546 335.73 357.495C337.78 355.445 338.805 354.42 340.343 353.908C341.88 353.395 343.931 350.832 345.468 349.294C347.006 347.757 357.257 351.345 354.694 358.008C352.132 364.671 347.519 368.772 345.468 371.335C343.418 373.898 337.78 379.536 334.704 386.712C331.629 393.888 326.503 407.214 321.378 413.878C316.252 420.541 293.699 451.807 273.709 451.295C240.393 461.546 270.121 464.621 228.091 463.596C186.061 462.571 197.85 463.596 182.985 463.596C192.724 455.395 230.462 422.007 223.478 413.365Z" fill="url(#paint3_linear_221_3)" stroke="#B67E66"/>
<path d="M70.7339 335.968C63.558 340.581 17.9398 365.697 0 371.847L1.53769 438.993C35.3669 419.003 104.461 378.613 110.201 376.973C117.377 374.923 127.629 376.973 139.93 377.998C152.232 379.023 166.071 373.385 167.609 373.385C169.146 373.385 178.372 372.873 180.935 371.335C183.498 369.797 192.724 363.646 195.8 361.596C198.875 359.546 211.177 354.42 223.478 352.37C235.78 350.32 240.905 343.656 239.368 340.068C237.83 336.48 233.729 333.405 221.428 332.893C209.126 332.38 208.101 335.455 192.724 341.606C177.347 347.757 180.935 339.043 181.448 335.455C181.96 331.867 190.161 322.129 193.749 320.078C197.337 318.028 204.001 311.365 208.101 310.852C212.202 310.34 220.915 303.676 223.478 304.189C226.041 304.701 233.729 303.164 237.83 304.189C241.93 305.214 247.056 303.164 250.644 301.114C254.232 299.063 254.429 293.938 251.669 293.938C251.157 293.938 248.594 293.938 243.981 292.4C239.368 290.862 230.141 289.837 227.066 288.299C223.991 286.762 219.89 286.249 216.302 287.274C213.432 288.094 206.222 290.008 202.976 290.862C200.413 291.375 191.699 292.4 194.774 290.35C199.388 289.325 208.614 278.561 209.639 279.073C210.664 279.586 213.739 281.636 215.79 281.636C217.84 281.636 221.94 282.149 222.966 282.661C223.991 283.174 232.192 291.887 234.755 288.812C237.317 285.737 233.729 285.224 232.192 281.636C230.654 278.048 228.091 273.435 223.478 270.36C218.865 267.284 213.739 266.259 212.714 265.234C211.689 264.209 205.538 261.134 202.463 262.671C199.388 264.209 169.659 283.686 171.709 281.636C173.759 279.586 200.413 263.184 199.388 262.671C198.362 262.159 193.237 259.596 190.161 259.083C187.701 258.673 185.377 259.938 184.523 260.621C181.448 263.184 160.945 280.611 157.87 281.636C160.945 278.895 172.734 269.676 178.372 264.721C175.81 264.209 169.659 260.432 163.508 266.259C153.769 275.485 96.8747 325.204 90.7239 326.742C84.5731 328.279 77.9098 331.355 70.7339 335.968Z" fill="url(#paint4_linear_221_3)" stroke="#B67E66"/>
<path d="M757.304 65.5768V61.9127C757.304 59.6025 758.771 57.5473 760.956 56.7969V56.7969C763.141 56.0465 764.608 53.9913 764.608 51.6811V50.3042C764.608 46.2702 761.338 43 757.304 43V43C753.27 43 750 46.2702 750 50.3042V50.5256" stroke="#FCE1D9" stroke-width="2"/>
<circle cx="546.5" cy="103.062" r="15.5" stroke="#D9DCF1" stroke-width="3"/>
<path d="M559.233 92.2537C557.831 93.7688 555.968 95.012 553.799 95.8804C551.63 96.7489 549.216 97.2178 546.757 97.2484C544.298 97.279 541.865 96.8704 539.658 96.0563C537.452 95.2422 535.535 94.0461 534.067 92.5667" stroke="#D9DCF1" stroke-width="3"/>
<path d="M559.233 113.871C557.831 112.356 555.968 111.113 553.799 110.245C551.63 109.376 549.216 108.907 546.757 108.877C544.298 108.846 541.865 109.255 539.658 110.069C537.452 110.883 535.535 112.079 534.067 113.558" stroke="#D9DCF1" stroke-width="3"/>
<path d="M546.5 87.5625V118.562" stroke="#D9DCF1" stroke-width="3"/>
<path d="M562 103.062H531" stroke="#D9DCF1" stroke-width="3"/>
<rect x="784" y="386" width="40" height="30" rx="2" stroke="#FEBBBA" stroke-width="3"/>
<path d="M784 393.5L803.106 403.053C803.669 403.334 804.331 403.334 804.894 403.053L824 393.5" stroke="#FEBBBA" stroke-width="3"/>
<path d="M746 278.583C746 273.37 746 270.763 747.047 268.786C747.891 267.194 749.194 265.891 750.786 265.047C752.763 264 755.37 264 760.583 264V264C765.797 264 768.404 264 770.38 265.047C771.973 265.891 773.276 267.194 774.119 268.786C775.167 270.763 775.167 273.37 775.167 278.583V289.167C775.167 291.052 775.167 291.995 774.581 292.581C773.995 293.167 773.052 293.167 771.167 293.167H760.583C755.37 293.167 752.763 293.167 750.786 292.119C749.194 291.276 747.891 289.973 747.047 288.38C746 286.404 746 283.797 746 278.583V278.583Z" stroke="#FCE1D9" stroke-width="3"/>
<path d="M755.115 276.761L766.052 276.761" stroke="#FCE1D9" stroke-width="3" stroke-linecap="round" stroke-linejoin="round"/>
<path d="M760.583 284.052H766.052" stroke="#FCE1D9" stroke-width="3" stroke-linecap="round" stroke-linejoin="round"/>
<path d="M61.1439 226.628C61.9305 224.667 62.3238 223.686 63.0001 223.686C63.6764 223.686 64.0697 224.667 64.8563 226.628L64.893 226.719C65.3373 227.827 65.5595 228.381 66.0124 228.717C66.4652 229.054 67.0597 229.107 68.2486 229.214L68.4636 229.233C70.4094 229.407 71.3823 229.494 71.5905 230.113C71.7986 230.732 71.0761 231.39 69.6311 232.704L69.1488 233.143C68.4173 233.809 68.0515 234.141 67.8811 234.578C67.8493 234.659 67.8228 234.742 67.8019 234.827C67.6899 235.282 67.797 235.764 68.0112 236.73L68.0778 237.03C68.4715 238.805 68.6684 239.692 68.3247 240.075C68.1963 240.218 68.0293 240.321 67.8439 240.371C67.3477 240.507 66.6433 239.933 65.2343 238.784C64.3091 238.031 63.8465 237.654 63.3154 237.569C63.1065 237.535 62.8937 237.535 62.6847 237.569C62.1536 237.654 61.6911 238.031 60.7659 238.784C59.3569 239.933 58.6525 240.507 58.1563 240.371C57.9708 240.321 57.8039 240.218 57.6755 240.075C57.3318 239.692 57.5287 238.805 57.9223 237.03L57.989 236.73C58.2032 235.764 58.3103 235.282 58.1983 234.827C58.1774 234.742 58.1509 234.659 58.1191 234.578C57.9487 234.141 57.5829 233.809 56.8514 233.143L56.3691 232.704C54.9241 231.39 54.2016 230.732 54.4097 230.113C54.6179 229.494 55.5908 229.407 57.5366 229.233L57.7516 229.214C58.9405 229.107 59.5349 229.054 59.9878 228.717C60.4406 228.381 60.6628 227.827 61.1072 226.719L61.1439 226.628Z" stroke="#FCE1D9" stroke-width="2"/>
<circle cx="787.625" cy="178.625" r="16.625" stroke="#E5E8FB" stroke-width="3"/>
<path d="M787.625 171.5C786.689 171.5 785.763 171.684 784.898 172.042C784.034 172.4 783.248 172.925 782.587 173.587C781.925 174.248 781.4 175.034 781.042 175.898C780.684 176.763 780.5 177.689 780.5 178.625" stroke="#E5E8FB" stroke-width="3" stroke-linecap="round"/>
<path d="M809 200L801.875 192.875" stroke="#E5E8FB" stroke-width="3" stroke-linecap="round"/>
<path d="M300.136 63.3614L301.131 63.2619L300.136 63.3614ZM299.984 62.5416L299.095 63V63L299.984 62.5416ZM300.431 64.8179L301.226 64.2114L301.226 64.2114L300.431 64.8179ZM301.359 65.2025L301.226 64.2114L301.359 65.2025ZM302.598 64.3811L303.231 65.1551L303.231 65.1551L302.598 64.3811ZM303.285 63.9092L303.59 64.8618L303.285 63.9092ZM303.987 63.9442L304.385 63.0266L304.385 63.0266L303.987 63.9442ZM304.624 64.4822L303.917 65.1893L303.917 65.1893L304.624 64.4822ZM305.518 65.3757L306.225 64.6686L306.225 64.6686L305.518 65.3757ZM306.056 66.0128L306.973 65.6152L306.973 65.6152L306.056 66.0128ZM306.091 66.7146L307.043 67.019L307.043 67.0189L306.091 66.7146ZM305.619 67.4021L304.845 66.7689L304.845 66.7689L305.619 67.4021ZM304.797 68.6406L303.806 68.5072L303.806 68.5072L304.797 68.6406ZM305.182 69.5689L304.575 70.364L304.575 70.364L305.182 69.5689ZM306.639 69.8639L306.738 68.8688L306.639 69.8639ZM307.458 70.0162L307.917 69.1275L307.917 69.1275L307.458 70.0162ZM307.93 70.5373L308.86 70.1696L308.86 70.1696L307.93 70.5373ZM307.93 73.4626L307 73.095L307 73.095L307.93 73.4626ZM307.458 73.9838L307.917 74.8726L307.917 74.8726L307.458 73.9838ZM306.639 74.1361L306.539 73.1411L306.507 73.1444L306.474 73.1497L306.639 74.1361ZM306.639 74.1361L306.738 75.1312L306.771 75.1279L306.803 75.1225L306.639 74.1361ZM305.183 74.4309L304.576 73.6357L304.576 73.6357L305.183 74.4309ZM304.798 75.3596L303.807 75.4931V75.4931L304.798 75.3596ZM305.619 76.5976L304.845 77.2308H304.845L305.619 76.5976ZM306.091 77.2848L305.138 77.5892V77.5892L306.091 77.2848ZM306.056 77.9869L305.138 77.5892L305.138 77.5892L306.056 77.9869ZM305.518 78.6238L306.225 79.3309H306.225L305.518 78.6238ZM304.624 79.5174L303.917 78.8102L303.917 78.8103L304.624 79.5174ZM303.987 80.0554L304.385 80.9729L304.385 80.9729L303.987 80.0554ZM303.285 80.0904L302.981 81.0429L302.981 81.0429L303.285 80.0904ZM302.598 79.6184L303.231 78.8444L303.223 78.8376L302.598 79.6184ZM302.598 79.6184L301.965 80.3924L301.973 80.3993L302.598 79.6184ZM301.359 78.7971L301.493 77.806H301.493L301.359 78.7971ZM300.431 79.1816L301.226 79.7882L301.226 79.7881L300.431 79.1816ZM300.136 80.6383L299.141 80.5388V80.5388L300.136 80.6383ZM299.984 81.4585L299.095 81L299.095 81L299.984 81.4585ZM299.463 81.9299L299.095 81L299.095 81L299.463 81.9299ZM296.537 81.9299L296.905 81L296.537 81.9299ZM296.016 81.4584L296.905 81H296.905L296.016 81.4584ZM295.864 80.6385L294.869 80.7381V80.7381L295.864 80.6385ZM295.569 79.182L294.774 79.7885L294.774 79.7885L295.569 79.182ZM294.641 78.7975L294.507 77.8064H294.507L294.641 78.7975ZM293.402 79.6189L292.769 78.8449L292.753 78.8579L292.738 78.8714L293.402 79.6189ZM293.402 79.6189L294.035 80.3928L294.051 80.3799L294.066 80.3663L293.402 79.6189ZM292.715 80.0908L293.019 81.0434H293.019L292.715 80.0908ZM292.013 80.0558L291.615 80.9734H291.615L292.013 80.0558ZM291.376 79.5178L292.083 78.8107H292.083L291.376 79.5178ZM290.482 78.6243L289.775 79.3315L289.775 79.3315L290.482 78.6243ZM289.944 77.9873L290.862 77.5897L290.862 77.5897L289.944 77.9873ZM289.909 77.2854L290.862 77.5897L290.862 77.5897L289.909 77.2854ZM290.381 76.5979L291.155 77.2311H291.155L290.381 76.5979ZM291.202 75.3594L292.194 75.4928L291.202 75.3594ZM290.818 74.4311L291.424 73.636L291.424 73.636L290.818 74.4311ZM289.361 74.1361L289.262 75.1312H289.262L289.361 74.1361ZM288.542 73.9838L289 73.095H289L288.542 73.9838ZM288.07 73.4627L287.14 73.8304L287.14 73.8304L288.07 73.4627ZM288.07 70.5372L287.14 70.1694L287.14 70.1694L288.07 70.5372ZM288.542 70.0163L288.083 69.1276L288.083 69.1276L288.542 70.0163ZM289.362 69.8638V68.8638H289.312L289.262 68.8688L289.362 69.8638ZM289.362 69.8638V70.8638H289.411L289.461 70.8589L289.362 69.8638ZM290.818 69.5688L290.212 68.7738L290.212 68.7738L290.818 69.5688ZM291.203 68.6407L292.194 68.5075L292.194 68.5075L291.203 68.6407ZM290.381 67.4018L291.155 66.7686H291.155L290.381 67.4018ZM289.909 66.7141L290.862 66.4099L290.862 66.4099L289.909 66.7141ZM289.944 66.0124L289.027 65.615L289.027 65.615L289.944 66.0124ZM290.482 65.3751L291.189 66.0822H291.189L290.482 65.3751ZM291.376 64.4818L290.669 63.7747V63.7747L291.376 64.4818ZM292.013 63.9437L291.615 63.0262L291.615 63.0262L292.013 63.9437ZM292.715 63.9087L293.019 62.9561V62.9561L292.715 63.9087ZM293.402 64.3808L294.035 63.6068V63.6068L293.402 64.3808ZM294.64 65.2021L294.774 64.211L294.64 65.2021ZM295.569 64.8174L294.774 64.211L294.774 64.211L295.569 64.8174ZM295.864 63.3613L296.859 63.4608V63.4608L295.864 63.3613ZM296.016 62.5417L295.127 62.0834L295.127 62.0834L296.016 62.5417ZM296.537 62.07L296.905 63L296.905 63L296.537 62.07ZM299.463 62.07L299.83 61.1401V61.1401L299.463 62.07ZM301.131 63.2619C301.111 63.0583 301.091 62.8569 301.063 62.6868C301.032 62.5068 300.983 62.297 300.873 62.0832L299.095 63C299.072 62.9555 299.077 62.9388 299.09 63.018C299.105 63.107 299.118 63.2309 299.141 63.4609L301.131 63.2619ZM301.226 64.2114C301.289 64.2943 301.269 64.331 301.234 64.136C301.201 63.9504 301.174 63.6892 301.131 63.2619L299.141 63.4609C299.18 63.8546 299.215 64.2089 299.266 64.4902C299.315 64.7618 299.401 65.1163 299.636 65.4244L301.226 64.2114ZM301.226 64.2114L301.226 64.2114L299.636 65.4244C300.072 65.9958 300.781 66.2894 301.493 66.1936L301.226 64.2114ZM301.965 63.6072C301.632 63.879 301.429 64.0448 301.274 64.1524C301.111 64.2655 301.123 64.2253 301.226 64.2114L301.493 66.1936C301.877 66.1419 302.189 65.9522 302.415 65.7947C302.65 65.6316 302.925 65.4056 303.231 65.1551L301.965 63.6072ZM302.981 62.9566C302.752 63.0298 302.568 63.1431 302.42 63.249C302.279 63.3491 302.123 63.4776 301.965 63.6072L303.231 65.1551C303.41 65.0087 303.507 64.9302 303.58 64.8778C303.646 64.8312 303.637 64.8465 303.59 64.8618L302.981 62.9566ZM304.385 63.0266C303.941 62.8342 303.442 62.8093 302.981 62.9566L303.59 64.8618L303.59 64.8618L304.385 63.0266ZM305.331 63.7751C305.187 63.6304 305.044 63.487 304.914 63.3734C304.777 63.2532 304.606 63.1223 304.385 63.0266L303.59 64.8618C303.544 64.8418 303.537 64.8258 303.597 64.8787C303.665 64.9381 303.754 65.0258 303.917 65.1893L305.331 63.7751ZM306.225 64.6686L305.331 63.7751L303.917 65.1893L304.811 66.0828L306.225 64.6686ZM306.973 65.6152C306.878 65.3944 306.747 65.2232 306.627 65.0858C306.513 64.956 306.37 64.8133 306.225 64.6686L304.811 66.0828C304.974 66.2463 305.062 66.3347 305.121 66.4026C305.174 66.4631 305.158 66.4563 305.138 66.4103L306.973 65.6152ZM307.043 67.0189C307.191 66.558 307.166 66.0592 306.973 65.6152L305.138 66.4103L305.138 66.4103L307.043 67.0189ZM306.393 68.0353C306.522 67.877 306.651 67.7207 306.751 67.5802C306.857 67.4316 306.97 67.2481 307.043 67.019L305.138 66.4103C305.153 66.3626 305.169 66.3543 305.122 66.4197C305.07 66.4932 304.991 66.5899 304.845 66.7689L306.393 68.0353ZM305.789 68.7739C305.775 68.8772 305.734 68.8889 305.848 68.7262C305.955 68.5714 306.121 68.3676 306.393 68.0353L304.845 66.7689C304.594 67.0751 304.368 67.3502 304.205 67.5848C304.048 67.8115 303.858 68.1232 303.806 68.5072L305.789 68.7739ZM305.789 68.7739V68.7739L303.806 68.5072C303.711 69.2194 304.004 69.9282 304.575 70.364L305.789 68.7739ZM306.738 68.8688C306.311 68.8261 306.05 68.7992 305.864 68.7658C305.669 68.7307 305.706 68.7106 305.789 68.7739L304.575 70.364C304.884 70.599 305.238 70.6853 305.51 70.7342C305.791 70.7848 306.145 70.8195 306.539 70.8589L306.738 68.8688ZM307.917 69.1275C307.703 69.0172 307.493 68.9676 307.313 68.9374C307.143 68.9088 306.942 68.8892 306.738 68.8688L306.539 70.8589C306.769 70.8819 306.893 70.8948 306.982 70.9098C307.061 70.9231 307.045 70.9279 307 70.905L307.917 69.1275ZM308.86 70.1696C308.682 69.7196 308.347 69.3493 307.917 69.1275L307 70.905L307 70.905L308.86 70.1696ZM309 71.3682C309 71.1636 309.001 70.9613 308.989 70.7891C308.977 70.607 308.948 70.3933 308.86 70.1696L307 70.905C306.982 70.8584 306.988 70.8423 306.993 70.9224C306.999 71.0125 307 71.137 307 71.3682H309ZM309 72.6319V71.3682H307V72.6319H309ZM308.86 73.8302C308.948 73.6065 308.977 73.3929 308.989 73.2108C309.001 73.0388 309 72.8365 309 72.6319H307C307 72.863 306.999 72.9875 306.993 73.0776C306.988 73.1577 306.982 73.1416 307 73.095L308.86 73.8302ZM307.917 74.8726C308.347 74.6507 308.682 74.2804 308.86 73.8302L307 73.095V73.095L307.917 74.8726ZM306.738 75.1312C306.942 75.1108 307.143 75.0912 307.313 75.0626C307.493 75.0324 307.703 74.9828 307.917 74.8726L307 73.095C307.045 73.0721 307.061 73.077 306.982 73.0902C306.893 73.1052 306.769 73.1181 306.539 73.1411L306.738 75.1312ZM306.803 75.1225L306.803 75.1225L306.474 73.1497L306.474 73.1497L306.803 75.1225ZM305.789 75.2261C305.706 75.2893 305.669 75.2692 305.864 75.2341C306.05 75.2007 306.311 75.1739 306.738 75.1312L306.539 73.1411C306.146 73.1805 305.791 73.2151 305.51 73.2657C305.239 73.3146 304.884 73.4008 304.576 73.6357L305.789 75.2261ZM305.789 75.2261L305.789 75.2261L304.576 73.6357C304.005 74.0716 303.711 74.7807 303.807 75.4931L305.789 75.2261ZM306.393 75.9643C306.121 75.6322 305.955 75.4285 305.848 75.2738C305.735 75.1111 305.775 75.1228 305.789 75.2261L303.807 75.4931C303.859 75.877 304.048 76.1886 304.206 76.4152C304.369 76.6497 304.595 76.9247 304.845 77.2308L306.393 75.9643ZM307.043 76.9803C306.97 76.7513 306.857 76.5679 306.751 76.4193C306.651 76.2789 306.522 76.1227 306.393 75.9643L304.845 77.2308C304.991 77.4097 305.07 77.5064 305.122 77.5799C305.169 77.6453 305.153 77.6369 305.138 77.5892L307.043 76.9803ZM306.973 78.3846C307.166 77.9404 307.191 77.4415 307.043 76.9803L305.138 77.5892L305.138 77.5892L306.973 78.3846ZM306.225 79.3309C306.37 79.1862 306.513 79.0436 306.627 78.9138C306.747 78.7765 306.878 78.6053 306.973 78.3846L305.138 77.5892C305.158 77.5433 305.174 77.5365 305.121 77.5969C305.062 77.6648 304.974 77.7532 304.811 77.9167L306.225 79.3309ZM305.331 80.2245L306.225 79.3309L304.811 77.9167L303.917 78.8102L305.331 80.2245ZM304.385 80.9729C304.606 80.8773 304.777 80.7463 304.914 80.6262C305.044 80.5126 305.187 80.3692 305.331 80.2245L303.917 78.8103C303.754 78.9737 303.665 79.0614 303.597 79.1209C303.537 79.1737 303.544 79.1577 303.59 79.1378L304.385 80.9729ZM302.981 81.0429C303.442 81.1902 303.941 81.1653 304.385 80.9729L303.59 79.1378H303.59L302.981 81.0429ZM301.965 80.3924C302.123 80.522 302.279 80.6505 302.42 80.7506C302.568 80.8565 302.752 80.9697 302.981 81.0429L303.59 79.1378C303.637 79.153 303.646 79.1683 303.58 79.1217C303.507 79.0693 303.41 78.9909 303.231 78.8445L301.965 80.3924ZM301.973 80.3993L301.973 80.3993L303.223 78.8376L303.223 78.8375L301.973 80.3993ZM301.226 79.7881C301.123 79.7742 301.111 79.7341 301.274 79.8472C301.429 79.9547 301.632 80.1205 301.965 80.3924L303.231 78.8445C302.925 78.5939 302.65 78.3679 302.415 78.2048C302.189 78.0473 301.877 77.8577 301.493 77.806L301.226 79.7881ZM301.226 79.7881H301.226L301.493 77.806C300.781 77.7102 300.072 78.0038 299.636 78.5751L301.226 79.7881ZM301.131 80.7378C301.174 80.3105 301.201 80.0492 301.234 79.8636C301.269 79.6685 301.289 79.7052 301.226 79.7882L299.636 78.5751C299.401 78.8832 299.315 79.2378 299.266 79.5094C299.215 79.7907 299.181 80.1451 299.141 80.5388L301.131 80.7378ZM300.872 81.917C300.983 81.7031 301.032 81.4932 301.063 81.3132C301.091 81.143 301.111 80.9415 301.131 80.7378L299.141 80.5388C299.118 80.769 299.105 80.8929 299.09 80.982C299.077 81.0612 299.072 81.0445 299.095 81L300.872 81.917ZM299.831 82.8598C300.28 82.6819 300.651 82.3469 300.872 81.917L299.095 81L299.095 81L299.831 82.8598ZM298.632 83C298.836 83 299.039 83.0005 299.211 82.989C299.393 82.9768 299.607 82.9483 299.831 82.8598L299.095 81C299.142 80.9816 299.158 80.9881 299.078 80.9935C298.987 80.9995 298.863 81 298.632 81V83ZM297.368 83H298.632V81H297.368V83ZM296.17 82.8599C296.393 82.9484 296.607 82.9769 296.789 82.989C296.961 83.0005 297.164 83 297.368 83V81C297.137 81 297.012 80.9995 296.922 80.9935C296.842 80.9881 296.858 80.9816 296.905 81L296.17 82.8599ZM295.127 81.9168C295.349 82.3469 295.72 82.682 296.17 82.8599L296.905 81L295.127 81.9168ZM294.869 80.7381C294.889 80.9417 294.909 81.1431 294.937 81.3132C294.968 81.4932 295.017 81.703 295.127 81.9168L296.905 81C296.928 81.0445 296.923 81.0612 296.91 80.982C296.895 80.893 296.882 80.7691 296.859 80.539L294.869 80.7381ZM294.774 79.7885C294.711 79.7056 294.731 79.6689 294.766 79.864C294.799 80.0495 294.826 80.3108 294.869 80.7381L296.859 80.539C296.82 80.1454 296.785 79.791 296.734 79.5098C296.685 79.2381 296.599 78.8836 296.364 78.5755L294.774 79.7885ZM294.774 79.7885L296.364 78.5755C295.928 78.0042 295.219 77.7106 294.507 77.8064L294.774 79.7885ZM294.035 80.3928C294.368 80.1209 294.571 79.9551 294.726 79.8476C294.889 79.7345 294.877 79.7746 294.774 79.7885L294.507 77.8064C294.123 77.858 293.811 78.0477 293.585 78.2052C293.35 78.3683 293.075 78.5944 292.769 78.8449L294.035 80.3928ZM294.066 80.3663L294.066 80.3663L292.738 78.8714L292.738 78.8715L294.066 80.3663ZM293.019 81.0434C293.248 80.9702 293.432 80.8569 293.58 80.751C293.721 80.6509 293.877 80.5224 294.035 80.3928L292.769 78.8449C292.59 78.9913 292.493 79.0698 292.42 79.1222C292.354 79.1688 292.363 79.1535 292.41 79.1383L293.019 81.0434ZM291.615 80.9734C292.059 81.1658 292.558 81.1907 293.019 81.0434L292.41 79.1383L292.41 79.1383L291.615 80.9734ZM290.669 80.2249C290.813 80.3696 290.956 80.513 291.086 80.6266C291.223 80.7468 291.394 80.8777 291.615 80.9734L292.41 79.1383C292.456 79.1582 292.463 79.1742 292.403 79.1213C292.335 79.0619 292.246 78.9742 292.083 78.8107L290.669 80.2249ZM289.775 79.3315L290.669 80.2249L292.083 78.8107L291.189 77.9172L289.775 79.3315ZM289.027 78.3848C289.122 78.6056 289.253 78.7768 289.373 78.9142C289.487 79.044 289.63 79.1868 289.775 79.3315L291.189 77.9172C291.026 77.7538 290.938 77.6653 290.879 77.5974C290.826 77.5369 290.842 77.5437 290.862 77.5897L289.027 78.3848ZM288.957 76.9811C288.809 77.4421 288.834 77.9408 289.027 78.3848L290.862 77.5897V77.5897L288.957 76.9811ZM289.607 75.9647C289.478 76.123 289.349 76.2793 289.249 76.4198C289.143 76.5684 289.03 76.7519 288.957 76.9811L290.862 77.5897C290.846 77.6374 290.831 77.6457 290.878 77.5803C290.93 77.5068 291.009 77.4101 291.155 77.2311L289.607 75.9647ZM290.211 75.2261C290.225 75.1228 290.265 75.1111 290.152 75.2738C290.045 75.4286 289.879 75.6324 289.607 75.9647L291.155 77.2311C291.406 76.9249 291.632 76.6498 291.795 76.4152C291.952 76.1885 292.142 75.8768 292.194 75.4928L290.211 75.2261ZM290.211 75.2261L290.211 75.2261L292.194 75.4928C292.289 74.7806 291.996 74.0718 291.424 73.636L290.211 75.2261ZM289.262 75.1312C289.689 75.1739 289.95 75.2008 290.136 75.2342C290.331 75.2693 290.294 75.2894 290.211 75.2261L291.424 73.636C291.116 73.4009 290.762 73.3147 290.49 73.2658C290.209 73.2152 289.855 73.1805 289.461 73.1411L289.262 75.1312ZM288.083 74.8725C288.297 74.9828 288.507 75.0324 288.687 75.0626C288.857 75.0912 289.058 75.1108 289.262 75.1312L289.461 73.1411C289.231 73.1181 289.107 73.1052 289.018 73.0902C288.939 73.0769 288.955 73.0721 289 73.095L288.083 74.8725ZM287.14 73.8304C287.318 74.2804 287.653 74.6507 288.083 74.8725L289 73.095H289L287.14 73.8304ZM287 72.6318C287 72.8364 286.999 73.0387 287.011 73.2109C287.023 73.393 287.052 73.6066 287.14 73.8304L289 73.095C289.018 73.1416 289.012 73.1577 289.007 73.0776C289.001 72.9875 289 72.863 289 72.6318H287ZM287 71.3683V72.6318H289V71.3683H287ZM287.14 70.1694C287.052 70.3932 287.023 70.607 287.011 70.7891C286.999 70.9613 287 71.1637 287 71.3683H289C289 71.1371 289.001 71.0125 289.007 70.9224C289.012 70.8423 289.018 70.8584 289 70.905L287.14 70.1694ZM288.083 69.1276C287.653 69.3494 287.318 69.7195 287.14 70.1694L289 70.905L289 70.905L288.083 69.1276ZM289.262 68.8688C289.058 68.8892 288.857 68.9088 288.687 68.9374C288.507 68.9676 288.297 69.0172 288.083 69.1276L289 70.905C288.955 70.928 288.939 70.9231 289.018 70.9098C289.107 70.8948 289.231 70.8819 289.461 70.8589L289.262 68.8688ZM289.362 68.8638H289.362V70.8638H289.362V68.8638ZM289.362 68.8638H289.362V70.8638H289.362V68.8638ZM290.212 68.7738C290.295 68.7105 290.331 68.7307 290.136 68.7658C289.951 68.7992 289.689 68.8261 289.262 68.8688L289.461 70.8589C289.855 70.8195 290.209 70.7848 290.491 70.7342C290.762 70.6853 291.117 70.5989 291.425 70.3638L290.212 68.7738ZM290.212 68.7738L290.212 68.7738L291.425 70.3638C291.996 69.928 292.29 69.2194 292.194 68.5075L290.212 68.7738ZM289.607 68.0351C289.879 68.3675 290.045 68.5713 290.153 68.7261C290.266 68.8889 290.226 68.8772 290.212 68.7738L292.194 68.5075C292.142 68.1233 291.953 67.8115 291.795 67.5848C291.632 67.3501 291.406 67.0749 291.155 66.7686L289.607 68.0351ZM288.957 67.0182C289.03 67.2475 289.143 67.431 289.249 67.5797C289.349 67.7203 289.478 67.8766 289.607 68.0351L291.155 66.7686C291.009 66.5896 290.93 66.4928 290.878 66.4192C290.831 66.3538 290.847 66.3622 290.862 66.4099L288.957 67.0182ZM289.027 65.615C288.834 66.0589 288.809 66.5574 288.957 67.0182L290.862 66.4099L289.027 65.615ZM289.775 64.668C289.63 64.8127 289.487 64.9555 289.373 65.0854C289.253 65.2228 289.122 65.3941 289.027 65.615L290.862 66.4099C290.842 66.4559 290.826 66.4627 290.879 66.4022C290.938 66.3342 291.026 66.2457 291.189 66.0822L289.775 64.668ZM290.669 63.7747L289.775 64.668L291.189 66.0822L292.083 65.1889L290.669 63.7747ZM290.669 63.7747L290.669 63.7747L292.083 65.1889L292.083 65.1889L290.669 63.7747ZM291.615 63.0262C291.394 63.1218 291.223 63.2528 291.086 63.3729C290.956 63.4865 290.813 63.63 290.669 63.7747L292.083 65.1889C292.246 65.0254 292.335 64.9377 292.403 64.8782C292.463 64.8254 292.456 64.8414 292.41 64.8613L291.615 63.0262ZM293.019 62.9561C292.558 62.8089 292.059 62.8338 291.615 63.0262L292.41 64.8613H292.41L293.019 62.9561ZM294.035 63.6068C293.877 63.4772 293.721 63.3486 293.58 63.2485C293.432 63.1426 293.248 63.0294 293.019 62.9561L292.41 64.8613C292.363 64.8461 292.354 64.8308 292.42 64.8774C292.493 64.9298 292.59 65.0083 292.769 65.1547L294.035 63.6068ZM294.774 64.211C294.877 64.2249 294.889 64.2651 294.726 64.152C294.571 64.0444 294.368 63.8787 294.035 63.6068L292.769 65.1547C293.075 65.4052 293.35 65.6312 293.585 65.7943C293.811 65.9518 294.123 66.1414 294.507 66.1931L294.774 64.211ZM294.774 64.211L294.774 64.211L294.507 66.1931C295.219 66.2891 295.928 65.9954 296.364 65.4238L294.774 64.211ZM294.869 63.2618C294.826 63.6889 294.799 63.9501 294.766 64.1356C294.731 64.3306 294.711 64.2939 294.774 64.211L296.364 65.4238C296.599 65.1158 296.685 64.7614 296.734 64.4898C296.785 64.2086 296.82 63.8544 296.859 63.4608L294.869 63.2618ZM295.127 62.0834C295.017 62.2972 294.968 62.5069 294.937 62.6868C294.909 62.8569 294.889 63.0582 294.869 63.2618L296.859 63.4608C296.882 63.2308 296.895 63.107 296.91 63.018C296.923 62.9388 296.928 62.9555 296.905 63L295.127 62.0834ZM296.17 61.14C295.72 61.318 295.349 61.6532 295.127 62.0834L296.905 63L296.905 63L296.17 61.14ZM297.368 61C297.164 61 296.961 60.9995 296.789 61.011C296.607 61.0231 296.394 61.0516 296.17 61.14L296.905 63C296.858 63.0184 296.842 63.0119 296.922 63.0065C297.012 63.0005 297.137 63 297.368 63V61ZM298.632 61H297.368V63H298.632V61ZM299.83 61.1401C299.607 61.0516 299.393 61.0231 299.211 61.011C299.039 60.9995 298.836 61 298.632 61V63C298.863 63 298.988 63.0005 299.078 63.0065C299.158 63.0119 299.142 63.0184 299.095 63L299.83 61.1401ZM300.873 62.0832C300.651 61.6531 300.28 61.318 299.83 61.1401L299.095 63L299.095 63L300.873 62.0832ZM301 72C301 73.6569 299.657 75 298 75V77C300.761 77 303 74.7614 303 72H301ZM298 69C299.657 69 301 70.3431 301 72H303C303 69.2386 300.761 67 298 67V69ZM295 72C295 70.3431 296.343 69 298 69V67C295.239 67 293 69.2386 293 72H295ZM298 75C296.343 75 295 73.6569 295 72H293C293 74.7614 295.239 77 298 77V75Z" fill="#CCD2E3"/>
<path d="M108.37 155.91L108.37 155.91C108.369 155.911 108.368 155.912 108.368 155.912C108.355 155.925 108.343 155.938 108.329 155.951C108.177 156.102 107.985 156.293 107.848 156.535C107.711 156.777 107.646 157.04 107.594 157.249C107.59 157.268 107.585 157.286 107.581 157.304L106.232 162.699L107.202 162.941L106.232 162.699C106.229 162.71 106.226 162.722 106.223 162.734C106.186 162.88 106.135 163.083 106.118 163.263C106.098 163.469 106.091 163.921 106.46 164.29L107.167 163.583L106.46 164.29C106.828 164.659 107.28 164.652 107.487 164.632C107.667 164.615 107.87 164.564 108.016 164.527C108.028 164.524 108.04 164.521 108.051 164.518L113.446 163.169C113.464 163.165 113.482 163.16 113.501 163.156C113.709 163.104 113.973 163.039 114.215 162.902L113.722 162.032L114.215 162.902C114.457 162.765 114.648 162.573 114.799 162.421C114.813 162.407 114.826 162.393 114.839 162.38C114.839 162.38 114.839 162.38 114.84 162.38L114.84 162.38L128.2 149.019L128.239 148.981C128.539 148.681 128.83 148.39 129.038 148.117C129.273 147.81 129.493 147.412 129.493 146.898C129.493 146.384 129.273 145.986 129.038 145.679C128.83 145.406 128.539 145.115 128.239 144.815L128.2 144.777L125.973 142.55L125.935 142.511C125.635 142.211 125.344 141.92 125.071 141.712C124.763 141.477 124.366 141.257 123.852 141.257C123.338 141.257 122.94 141.477 122.633 141.712C122.36 141.92 122.069 142.211 121.769 142.511C121.756 142.524 121.743 142.537 121.731 142.55L108.37 155.91Z" fill="#FCE1D9" stroke="#FEBBBA" stroke-width="2"/>
<path d="M119.639 144.37L124.694 141L129.75 146.056L126.38 151.111L119.639 144.37Z" fill="#FCE1D9"/>
<path d="M89 61.4166C89 56.203 89 53.5962 87.9527 51.6195C87.1088 50.027 85.8063 48.7244 84.2137 47.8806C82.237 46.8333 79.6302 46.8333 74.4166 46.8333V46.8333C69.203 46.8333 66.5962 46.8333 64.6195 47.8806C63.027 48.7244 61.7244 50.027 60.8806 51.6195C59.8333 53.5962 59.8333 56.203 59.8333 61.4166V72C59.8333 73.8856 59.8333 74.8284 60.419 75.4142C61.0048 76 61.9476 76 63.8333 76H74.4166C79.6302 76 82.237 76 84.2137 74.9527C85.8063 74.1088 87.1088 72.8063 87.9527 71.2137C89 69.237 89 66.6302 89 61.4166V61.4166Z" stroke="#FEBBBA" stroke-width="3"/>
<path d="M79.8853 59.594L68.9477 59.594" stroke="#FEBBBA" stroke-width="3" stroke-linecap="round" stroke-linejoin="round"/>
<path d="M74.4165 66.8855H68.9477" stroke="#FEBBBA" stroke-width="3" stroke-linecap="round" stroke-linejoin="round"/>
<path d="M423.628 27.219C423.981 23.6885 426.952 21 430.5 21C434.048 21 437.019 23.6885 437.372 27.219L437.73 30.8017C437.801 31.5122 437.837 31.8674 437.903 32.2137C438.058 33.0334 438.341 33.8236 438.741 34.5559C438.91 34.8651 439.108 35.1622 439.504 35.7564L440.927 37.8906C441.84 39.2593 442.296 39.9437 442.013 40.4719C441.731 41 440.908 41 439.263 41H421.737C420.092 41 419.269 41 418.987 40.4719C418.704 39.9437 419.16 39.2593 420.073 37.8906L421.496 35.7564C421.892 35.1622 422.09 34.8651 422.259 34.5559C422.659 33.8236 422.942 33.0334 423.097 32.2137C423.163 31.8674 423.199 31.5122 423.27 30.8017L423.628 27.219Z" fill="#E3E4F0"/>
<path d="M428.085 44.2868C428.228 44.4197 428.541 44.5371 428.978 44.6208C429.415 44.7046 429.95 44.75 430.5 44.75C431.05 44.75 431.585 44.7046 432.022 44.6208C432.459 44.5371 432.772 44.4197 432.915 44.2868" stroke="white" stroke-width="2" stroke-linecap="round"/>
<defs>
<filter id="filter0_d_221_3" x="546.958" y="238.204" width="116.796" height="119.796" filterUnits="userSpaceOnUse" color-interpolation-filters="sRGB">
<feFlood flood-opacity="0" result="BackgroundImageFix"/>
<feColorMatrix in="SourceAlpha" type="matrix" values="0 0 0 0 0 0 0 0 0 0 0 0 0 0 0 0 0 0 127 0" result="hardAlpha"/>
<feOffset dx="2" dy="5"/>
<feGaussianBlur stdDeviation="1"/>
<feComposite in2="hardAlpha" operator="out"/>
<feColorMatrix type="matrix" values="0 0 0 0 0 0 0 0 0 0 0 0 0 0 0 0 0 0 0.1 0"/>
<feBlend mode="normal" in2="BackgroundImageFix" result="effect1_dropShadow_221_3"/>
<feBlend mode="normal" in="SourceGraphic" in2="effect1_dropShadow_221_3" result="shape"/>
</filter>
<linearGradient id="paint0_linear_221_3" x1="587.215" y1="269.536" x2="610.002" y2="309.603" gradientUnits="userSpaceOnUse">
<stop stop-color="#4C3300"/>
<stop offset="1" stop-color="#725210"/>
</linearGradient>
<linearGradient id="paint1_linear_221_3" x1="178.886" y1="217.053" x2="322.916" y2="496.4" gradientUnits="userSpaceOnUse">
<stop stop-color="#D9D9D9"/>
<stop offset="1" stop-color="#A5A5A5"/>
</linearGradient>
<linearGradient id="paint2_linear_221_3" x1="294.725" y1="73.0221" x2="431.067" y2="312.902" gradientUnits="userSpaceOnUse">
<stop stop-color="#2D2E35"/>
<stop offset="1" stop-color="#1D171E"/>
</linearGradient>
<linearGradient id="paint3_linear_221_3" x1="306.001" y1="319.053" x2="289.086" y2="433.355" gradientUnits="userSpaceOnUse">
<stop stop-color="#D3A996"/>
<stop offset="0.520833" stop-color="#BE8B74"/>
<stop offset="1" stop-color="#AE7157"/>
</linearGradient>
<linearGradient id="paint4_linear_221_3" x1="207.589" y1="416.953" x2="46.1308" y2="360.058" gradientUnits="userSpaceOnUse">
<stop stop-color="#CA9A83"/>
<stop offset="0.489583" stop-color="#D5AB99"/>
<stop offset="1" stop-color="#B77F66"/>
</linearGradient>
</defs>
</svg>
