<svg width="90" height="90" viewBox="0 0 90 90" fill="none" xmlns="http://www.w3.org/2000/svg">
<rect width="90" height="90" rx="4" fill="#E54E2E"/>
<path d="M16.5045 44.0732C14.9772 41.4678 14.8874 38.1437 15.067 36.8859C25.2191 53.1472 44.5349 49.0145 44.5349 50.5418C44.5349 53.6977 38.7851 53.776 37.7968 53.776C36.8086 53.776 32.586 54.0456 32.6759 55.1237C32.7657 56.2018 33.6641 69.3185 33.6641 73.4512C33.6641 76.3261 30.3101 76.2363 29.5314 73.9004C29.3518 73.3614 26.4768 63.2094 26.2972 62.7601C26.1175 62.3109 25.9378 61.8617 25.2191 61.7719C24.5003 61.6821 23.4223 63.6586 22.3442 66.8928C21.2661 70.1271 18.2115 69.5881 18.8404 66.0843C19.4693 62.5805 21.5356 51.9792 21.5356 50.8113C21.5356 49.6434 18.0318 46.6786 16.5045 44.0732Z" fill="#F0EFFD"/>
<path d="M29.1022 39.3046C29.9985 41.8788 29.2346 44.4847 27.3958 45.1249C25.5571 45.7651 23.3399 44.1973 22.4436 41.6231C21.5472 39.0488 22.1396 36.1157 23.9783 35.4755C25.8171 34.8353 28.2059 36.7304 29.1022 39.3046Z" fill="#F0EFFD"/>
<path d="M73.284 44.441C74.8113 41.8356 74.9011 38.5115 74.7214 37.2537C64.5694 53.515 45.2536 49.3823 45.2536 50.9096C45.2536 54.0655 51.0034 54.1438 51.9917 54.1438C52.9799 54.1438 57.2024 54.4134 57.1126 55.4915C57.0228 56.5696 56.1244 69.6863 56.1244 73.819C56.1244 76.6939 59.4784 76.6041 60.257 74.2682C60.4367 73.7292 63.3116 63.5771 63.4913 63.1279C63.671 62.6787 63.8507 62.2295 64.5694 62.1397C65.2881 62.0499 66.3662 64.0264 67.4443 67.2606C68.5224 70.4949 71.577 69.9559 70.9481 66.4521C70.3192 62.9483 68.2529 52.347 68.2529 51.1791C68.2529 50.0112 71.7567 47.0464 73.284 44.441Z" fill="#F0EFFD"/>
<path d="M60.6862 39.6724C59.7899 42.2466 60.5539 44.8525 62.3927 45.4927C64.2314 46.1329 66.4486 44.5651 67.3449 41.9909C68.2412 39.4166 67.6489 36.4835 65.8102 35.8433C63.9714 35.2031 61.5826 37.0982 60.6862 39.6724Z" fill="#F0EFFD"/>
<path d="M30.879 23.4097C16.774 26.9135 15.5162 33.9211 15.1568 35.718C15.4862 36.0174 16.3248 36.4367 17.0435 35.718C17.9419 34.8196 20.0981 31.8548 19.9184 34.4602C19.7747 36.5445 18.9601 39.8207 18.5708 41.1983C19.1997 41.7373 22.2543 44.5224 23.4222 44.8817C19.7567 37.7663 22.1345 34.9693 23.7816 34.4602C28.0041 33.0227 31.9561 42.0967 29.3517 46.1395C31.8673 49.0144 33.6641 45.9598 33.125 44.8817C32.586 43.8036 27.5549 31.1361 27.1955 29.7884C27.0278 29.1596 27.3153 28.4408 27.5549 28.0815C29.172 25.6558 32.0469 25.8354 30.879 23.4097Z" fill="#1A2E35"/>
<path d="M17.0435 52.4284C16.2349 50.4519 17.0435 48.5652 17.4029 47.3074C18.451 47.4871 20.319 49.798 20.5473 51.3503C20.9965 54.4049 17.5388 53.6391 17.0435 52.4284Z" fill="#1A2E35"/>
<path d="M25.9004 21.419C25.368 23.7062 23.6119 25.2521 21.9782 24.8718C20.3444 24.4914 19.4516 22.3289 19.9841 20.0417C20.5166 17.7544 22.2983 15.8912 23.932 16.2716C25.5658 16.6519 26.4329 19.1317 25.9004 21.419Z" fill="#1A2E35"/>
<path d="M59.0953 23.5001C73.2003 27.0039 74.4581 34.0115 74.8175 35.8083C74.4881 36.1078 73.6495 36.527 72.9308 35.8083C72.0324 34.9099 69.8762 31.9451 70.0559 34.5505C70.1996 36.6348 71.0142 39.911 71.4035 41.2886C70.7746 41.8276 67.72 44.6127 66.5521 44.9721C70.2176 37.8567 67.8398 35.0596 66.1927 34.5505C61.9702 33.1131 58.0182 42.187 60.6226 46.2298C58.1071 49.1047 56.3102 46.0502 56.8493 44.9721C57.3883 43.894 62.4194 31.2264 62.7788 29.8788C62.9465 29.2499 62.659 28.5312 62.4194 28.1718C60.8023 25.7461 57.9274 25.9258 59.0953 23.5001Z" fill="#1A2E35"/>
<path d="M72.9308 52.5187C73.7394 50.5422 72.9308 48.6555 72.5715 47.3978C71.5233 47.5775 69.6553 49.8883 69.427 51.4406C68.9778 54.4952 72.4355 53.7294 72.9308 52.5187Z" fill="#1A2E35"/>
<path d="M64.0739 21.5093C64.6063 23.7966 66.3624 25.3424 67.9961 24.9621C69.6299 24.5818 70.5227 22.4193 69.9902 20.132C69.4578 17.8448 67.676 15.9816 66.0423 16.3619C64.4085 16.7422 63.5414 19.2221 64.0739 21.5093Z" fill="#1A2E35"/>
<path d="M58.011 23.4098C48.3981 20.1755 33.0352 22.6012 31.7775 23.4098C31.6577 24.0087 32.1368 25.2066 35.0117 25.2066C38.6054 25.2066 39.1444 26.6441 39.0546 27.9917C38.9647 29.3393 37.8867 38.7726 37.3476 42.4561C36.8141 46.1018 40.5819 44.6123 41.0311 43.5342C41.4803 42.4561 42.9178 38.3234 43.367 36.7961C43.8162 35.2688 44.9841 34.6399 45.7028 35.8079C46.4216 36.9758 47.2301 38.7726 48.3981 42.0069C49.566 45.2412 52.5307 43.624 52.2612 41.2882C51.9917 38.9523 50.7339 29.0698 50.6441 27.4526C50.5722 26.1589 51.4526 25.8355 51.9019 25.8355C54.4174 24.5777 56.5736 25.8355 58.011 23.4098Z" fill="#1A2E35"/>
<path d="M49.0269 16.1327C49.0269 18.4151 47.1767 20.2654 44.8943 20.2654C42.6118 20.2654 40.7616 18.4151 40.7616 16.1327C40.7616 13.8503 42.6118 12 44.8943 12C47.1767 12 49.0269 13.8503 49.0269 16.1327Z" fill="#1A2E35"/>
</svg>
