<svg width="90" height="90" viewBox="0 0 90 90" fill="none" xmlns="http://www.w3.org/2000/svg">
<rect width="90" height="90" rx="4" fill="#262535"/>
<path d="M12.1531 69.623C12.1307 68.4889 12.1451 61.2904 12 59.885C15.0376 57.2039 24.2544 58.7903 24.2515 60.23C24.2487 61.6697 24.1118 64.3795 24.0437 65.5545C23.8057 65.3897 23.3245 65.1931 23.3037 65.7256C23.283 66.258 23.0598 68.5601 22.9508 69.6446C20.2142 69.7377 14.8153 69.7269 12.1531 69.623Z" fill="#E54E2E"/>
<path d="M21.4578 53.0338C21.4578 56.4853 17.6229 58.7862 15.3219 59.9367C13.4046 60.8955 13.8646 62.2377 17.2394 62.2377C21.4578 62.2377 24.5258 56.1018 24.5258 53.0338C24.5258 49.9659 21.4578 45.7475 21.4578 42.6795C21.4578 39.6116 24.9093 38.0776 26.8267 38.0776C28.7442 38.0776 30.2782 35.0096 26.4432 35.0096C22.6083 35.0096 18.3899 38.4611 18.3899 42.6795C18.3899 46.8979 21.4578 49.5824 21.4578 53.0338Z" fill="#E54E2E"/>
<path d="M70.9292 66.8396C69.7787 65.6891 62.4924 59.1697 60.9584 57.6357C60.191 56.8687 62.339 55.1814 63.2594 56.1018C64.1797 57.0222 69.7787 62.1098 72.4632 64.5386L72.0797 60.7037H73.9972L77.8321 71.825L73.9972 71.4415L73.2302 67.2231C72.8467 67.4787 71.8496 67.76 70.9292 66.8396Z" fill="#E54E2E"/>
<path d="M45.2348 58.4027C45.1069 60.7036 44.0843 67.6065 44.0843 70.291C44.0843 72.9754 50.6036 73.7424 50.6036 70.291C50.6036 66.8395 52.9046 59.9366 52.9046 58.4027C52.9046 56.8687 52.5211 56.1017 50.6036 54.1842C49.0697 52.6503 46.1295 49.1988 44.8512 47.6648L48.6862 43.0629C48.6862 44.2134 49.0697 46.9746 50.6036 48.8153C52.5211 51.1163 54.4386 53.8007 57.5065 56.1017C60.5745 58.4027 61.3415 52.6503 60.191 51.4998C59.2706 50.5794 56.2282 46.77 54.8221 44.9804C54.8221 43.3186 54.7454 39.228 54.4386 36.16C54.0551 32.3251 51.7541 31.5581 50.6036 30.4076C49.4532 29.2572 46.3852 27.3397 44.8512 26.1892C43.3173 25.0387 39.4823 23.5048 38.3318 25.4222C37.4115 26.9562 31.5568 33.2199 28.7445 36.16C30.7898 36.7992 35.1872 37.694 36.4144 36.16C37.6416 34.6261 39.738 32.4529 40.6328 31.5581L44.0843 33.8591C42.4225 36.16 38.562 41.4523 36.4144 44.2134C33.73 47.6648 35.2639 51.8833 36.4144 52.6503C37.3348 53.2639 42.6781 56.7409 45.2348 58.4027Z" fill="#F0EFFD"/>
<path d="M29.8952 66.0725C30.6621 63.7716 34.1136 57.6357 35.2641 55.3347C37.4372 56.613 41.4 58.4027 40.633 59.5531C39.866 60.7036 37.1887 65.8052 35.6476 68.3735C33.3464 72.2084 29.1282 68.3735 29.8952 66.0725Z" fill="#F0EFFD"/>
<ellipse cx="57.049" cy="22.3719" rx="6.79246" ry="8.06604" transform="rotate(29.7044 57.049 22.3719)" fill="#F0EFFD"/>
</svg>
