<svg width="15" height="18" viewBox="0 0 15 18" fill="none" xmlns="http://www.w3.org/2000/svg">
<path d="M1.7857 1.67309L2.28382 1.30907C3.47867 0.435918 5.15511 0.696697 6.02827 1.89154C6.90142 3.08638 6.64064 4.76283 5.4458 5.63598L4.90545 6.03085C4.58214 6.26711 4.44629 6.68375 4.56819 7.06519C5.27289 9.27019 6.67374 11.1872 8.5605 12.5283C8.88688 12.7604 9.3251 12.7575 9.64841 12.5212L9.94837 12.302C11.276 11.3318 13.1387 11.6216 14.1089 12.9492C14.885 14.0113 14.6532 15.5015 13.5911 16.2776L12.8526 16.8173C11.2764 17.9691 9.09298 17.7867 7.72976 16.3892C4.91777 13.5065 2.52978 10.2387 0.637439 6.6839C-0.279944 4.96059 0.209448 2.82496 1.7857 1.67309Z" fill="white"/>
</svg>
