<svg width="90" height="90" viewBox="0 0 90 90" fill="none" xmlns="http://www.w3.org/2000/svg">
<rect width="90" height="90" rx="4" fill="#6B2976"/>
<path d="M35.1885 47.0125C29.922 48.5486 29.4831 53.1568 29.4831 55.1318C29.9219 62.3735 38.6995 63.2512 42.2105 63.2512C46.5993 65.3579 51.0613 64.129 52.7436 63.2512C55.5964 61.4957 55.1575 57.875 53.1825 56.8875C52.3048 56.4486 52.9631 54.9857 54.2797 55.5709C56.2547 56.4486 58.2296 60.8374 54.2797 64.3484C51.305 66.9926 45.7216 66.4697 43.0883 65.6651C42.6494 69.3956 57.1324 77.5148 61.7407 68.2984C64.8128 68.0789 69.4211 61.4957 67.6655 57.3264C75.5654 55.7903 78.4181 42.8433 70.5183 35.6018C70.7377 33.4072 65.9101 23.0938 55.5964 23.9715C52.0853 20.6799 45.7216 17.6078 38.9189 22.216C35.8468 20.4604 27.2886 20.241 24.2165 27.4825C17.1944 28.5358 15.1463 34.7972 15 37.7962C15 45.9155 21.3638 50.5237 25.7525 50.7431C26.6303 50.9187 27.8738 50.67 28.3858 50.5237C28.3858 48.7683 31.8969 45.4766 34.5301 45.2571C34.5301 38.6739 31.6774 35.3824 29.2636 34.2851C25.4945 32.5718 21.5832 34.2851 21.3638 37.7962C21.1443 41.3072 23.997 42.1848 25.0942 42.1848C25.972 42.1848 26.7766 42.0386 27.0692 41.9655C28.8247 41.3073 29.0441 43.1725 27.7275 43.5016C26.8497 43.7211 25.7525 43.9658 25.0942 43.9405C20.5299 43.7651 19.5351 39.7712 19.6083 37.7962C19.3888 33.188 24.4359 30.5547 29.2636 32.0908C30.5803 26.8242 36.7246 26.6048 36.944 26.6048C37.1635 26.6048 40.2356 26.8242 40.6745 27.2631C41.0256 27.6142 41.2597 27.5557 41.3328 27.4825C41.5523 27.0436 43.6368 24.8492 47.2577 24.6298C53.0509 24.2787 55.377 29.3111 55.8158 31.8712C58.098 31.3445 67.2267 31.4324 67.6656 39.9904C67.6656 40.6488 67.4462 41.746 67.4462 41.9654C68.3239 43.0626 70.9572 47.0125 68.5434 51.1819C66.1295 55.3512 59.1074 52.2791 58.4491 51.8402C57.7908 51.4013 50.9882 48.9875 48.5743 51.4013C46.1605 53.8152 43.5272 54.6929 41.9911 54.6929C40.4551 54.6929 39.1384 53.5957 38.4801 52.2791C37.8218 50.9625 39.5773 50.5236 40.0162 51.1819C40.4551 51.8402 40.4551 52.9374 41.9911 53.1568C43.5272 53.3763 45.2827 51.6208 47.2577 50.0847C48.8377 48.8558 52.1585 48.5486 53.6214 48.5486C58.6686 48.3292 63.7157 55.1318 67.4462 49.4264C68.675 46.9686 66.6415 43.5746 65.4712 42.1848C65.4712 40.6487 66.1609 39.9904 65.9101 39.1127C64.5057 34.1973 60.3509 33.261 58.4491 33.4072C52.0854 32.9684 51.427 39.5516 51.8659 39.9904C53.9725 39.1127 57.1325 41.8191 58.4491 43.282C59.7658 44.3793 58.4491 46.2445 57.1325 44.5987C54.3237 41.0876 50.2567 41.5265 48.5743 42.1848C47.2577 42.6237 46.8847 44.1598 43.5272 42.1848C40.5428 40.4293 38.1875 42.77 37.3829 44.1598C37.1635 45.0375 36.944 46.5005 35.1885 47.0125Z" fill="#F0EFFD"/>
<path d="M40.4551 29.2381C35.1886 26.8242 31.0192 30.1158 30.7997 33.188C35.408 35.3824 36.2858 42.4045 36.2858 42.4045C39.1385 38.4545 43.9662 39.9907 45.9411 41.3073C46.5994 40.8684 49.0133 39.9907 49.891 39.9907C50.1105 36.0408 52.3049 33.188 54.0604 32.5297C52.7437 24.1909 43.9662 25.5076 42.4301 29.0187C41.9912 29.8964 40.8208 29.6769 40.4551 29.2381Z" fill="#CD492F"/>
</svg>
