<svg width="47" height="30" viewBox="0 0 47 30" fill="none" xmlns="http://www.w3.org/2000/svg">
<path d="M15.1947 6.44365C19.387 3.7866 18.0731 -0.642992 10.7029 4.08132C4.71387 7.92036 2.38479 11.7591 2.0188 18.2554C1.71935 23.5706 5.01332 28 10.7029 28C15.2278 28 19.2444 23.2755 18.7881 18.5507C18.2177 12.645 13.0985 12.6453 12.2001 11.4639C12.2001 11.4639 11.0023 9.1007 15.1947 6.44365Z" stroke="#1A2E35" stroke-width="3"/>
<path d="M41.1947 6.44365C45.387 3.7866 44.0731 -0.642992 36.7029 4.08132C30.7139 7.92036 28.3848 11.7591 28.0188 18.2554C27.7194 23.5706 31.0133 28 36.7029 28C41.2278 28 45.2444 23.2755 44.7881 18.5507C44.2177 12.645 39.0985 12.6453 38.2001 11.4639C38.2001 11.4639 37.0023 9.1007 41.1947 6.44365Z" stroke="#1A2E35" stroke-width="3"/>
</svg>
