<svg width="90" height="90" viewBox="0 0 90 90" fill="none" xmlns="http://www.w3.org/2000/svg">
<rect width="90" height="90" rx="4" fill="#E54E2E"/>
<path d="M43.5401 50.5288C41.6556 48.6317 32.9402 46.7346 31.0557 43.8889C29.1712 44.8375 29.125 47.2336 32.233 49.5802C36.002 52.4258 37.8866 51.4773 41.6556 53.3744C45.4246 55.2715 45.4246 52.4258 43.5401 50.5288Z" fill="#F0EFFD"/>
<path d="M22.8823 47.8029V43.8889C21.8941 43.8889 13 49.7599 13 58.5663C13 69.3298 20.9058 74.2222 28.8117 74.2222C36.7175 74.2222 40.6704 69.3298 41.6587 67.3728C42.6469 65.4158 40.227 63.8978 38.694 65.4158C37.7058 66.3943 35.4726 70.3083 27.8235 70.3083C22.8823 70.3083 16.9529 65.4158 16.9529 59.5448C16.9529 53.6739 19.9176 50.7384 22.8823 47.8029Z" fill="#E54E2E"/>
<path d="M23.1111 61.2951V43.0945C23.1111 38.0388 31.1147 39.05 31.1147 42.0834V53.206C31.1147 56.2394 34.1161 56.2394 34.1161 56.2394H41.1192C44.1206 56.2394 45.9112 55.8144 47.122 58.2617C49.1229 62.3063 51.1238 65.3397 53.1247 69.3843C55.1256 73.4289 47.9449 75.5223 46.9444 73.5C45.944 71.4777 42.1197 64.3286 41.1192 63.3174C40.9373 63.1336 40.4444 62.6667 39.7222 62.6667C39 62.6667 28.1134 63.6778 26.1125 63.6778C24.1116 63.6778 23.1111 63.3174 23.1111 61.2951Z" fill="#F0EFFD"/>
<circle cx="28.8889" cy="29.4444" r="5.77778" fill="#1A2E35"/>
<path d="M53.2086 36.382C48.3405 38.3988 44.446 47.4743 42.4988 50.4995C40.5516 53.5247 43.4724 58.0623 48.3405 50.4995C50.2876 47.4747 50.2877 47.4743 51.2611 45.4581L51.2614 45.4575C52.235 43.4407 54.1822 41.4239 54.1822 44.4491V65.6254C54.1822 73.6926 59.0503 75.7093 59.0503 67.6422C59.0503 63.6086 60.3484 58.5666 60.9975 56.5499V69.659C60.9975 74.701 65.8656 72.6842 65.8656 69.659C65.8656 64.6172 66.8392 48.4829 66.8392 39.4071C69.76 39.4071 74.6281 31.34 76.5753 28.3148C80.4698 22.2646 75.554 22.3264 71.7073 27.3064C63.9184 37.3903 58.0767 34.3652 53.2086 36.382Z" fill="#F0EFFD"/>
<circle cx="59.2222" cy="20.7778" r="5.77778" fill="#1A2E35"/>
</svg>
